<svg width="308" height="308" viewBox="0 0 308 308" fill="none" xmlns="http://www.w3.org/2000/svg">
<path fill-rule="evenodd" clip-rule="evenodd" d="M247.619 0.0273438C280.805 0.0273438 307.707 26.9296 307.707 60.1151V247.589C307.707 280.775 280.805 307.677 247.619 307.677H60.1454C26.9598 307.677 0.0576172 280.775 0.0576172 247.589V60.1151C0.0576172 26.9296 26.9598 0.0273438 60.1454 0.0273438H247.619Z" fill="#EAEAFF"/>
<path d="M35.6592 34.3671C35.9296 33.2555 36.1399 32.5945 36.1399 32.5645L37.2816 32.955C37.2816 32.9851 37.0713 33.5859 36.8309 34.6375L35.6592 34.3671Z" fill="#87C0F4"/>
<path fill-rule="evenodd" clip-rule="evenodd" d="M19.6459 260.898C20.7275 260.868 21.8992 260.717 23.131 260.507L23.3413 261.679C22.0494 261.949 20.8176 262.069 19.6759 262.099L19.6459 260.898ZM12.4353 260.627L13.0062 259.576C13.9676 260.086 15.0492 260.447 16.2209 260.687L15.9805 261.859C14.6886 261.619 13.5169 261.198 12.4353 260.627ZM26.5259 259.666L26.6161 259.636C27.7577 259.275 28.8393 258.885 29.8608 258.494L30.3115 259.606C29.2599 260.026 28.1483 260.447 26.9766 260.807H26.8564L26.5259 259.666ZM7.32788 255.219L8.40945 254.678C8.9202 255.73 9.58117 256.691 10.3323 257.503L9.43095 258.314C8.58972 257.413 7.89871 256.391 7.32788 255.219ZM33.0154 256.962C34.0369 256.391 34.9983 255.76 35.9597 255.069L36.6808 256.03C35.6893 256.752 34.6678 257.413 33.5862 258.013L33.0154 256.962ZM38.6336 252.816C39.4448 252.035 40.256 251.193 41.0672 250.262L41.9685 251.043C41.1573 252.005 40.3161 252.876 39.4748 253.687L38.6336 252.816ZM43.2904 247.498C43.9514 246.597 44.6424 245.635 45.3334 244.584L46.3249 245.245C45.6338 246.296 44.9428 247.318 44.2518 248.219L43.2904 247.498ZM47.2863 241.579C47.8871 240.618 48.488 239.627 49.149 238.515L50.1705 239.116C49.5095 240.257 48.9086 241.249 48.3077 242.21L47.2863 241.579ZM50.9216 235.42C51.4924 234.429 52.0632 233.377 52.6641 232.296L53.7156 232.867C53.1148 233.978 52.544 235.03 51.9731 236.021L50.9216 235.42ZM54.4067 229.171C54.9475 228.15 55.5183 227.098 56.1192 226.017L57.1707 226.587C56.5698 227.669 55.999 228.721 55.4582 229.742L54.4067 229.171ZM57.8016 222.862C58.3424 221.841 58.9133 220.789 59.4841 219.707L60.5356 220.278C59.9648 221.33 59.424 222.381 58.8531 223.433L57.8016 222.862ZM61.2567 216.493C61.8575 215.531 62.6087 214.6 63.54 213.578L64.4113 214.39C63.57 215.351 62.8189 216.282 62.2782 217.154L61.2567 216.493ZM66.1839 211.055C67.0251 210.334 67.9264 209.553 68.978 208.741L69.7291 209.673C68.6475 210.514 67.7762 211.235 66.965 211.956L66.1839 211.055ZM71.8321 206.578C72.6734 205.977 73.6047 205.286 74.7464 204.475L75.4374 205.467C74.2957 206.278 73.3644 206.939 72.5532 207.54L71.8321 206.578ZM77.6907 202.402C78.6521 201.711 79.6435 201.02 80.6049 200.329L81.296 201.321C80.3346 202.012 79.3431 202.703 78.3817 203.394L77.6907 202.402ZM83.5192 198.226C84.5407 197.475 85.4721 196.754 86.3734 196.063L87.1245 197.024C86.1931 197.715 85.2617 198.406 84.2402 199.187L83.5192 198.226ZM89.1374 193.78C90.0688 192.998 90.9701 192.187 91.8113 191.436L92.6225 192.307C91.7813 193.119 90.8799 193.93 89.9185 194.711L89.1374 193.78ZM94.3651 188.973C95.2063 188.101 96.0175 187.23 96.7686 186.359L97.6699 187.14C96.9188 188.011 96.1076 188.912 95.2363 189.814L94.3651 188.973ZM98.9617 183.595C99.6528 182.633 100.314 181.612 100.885 180.65L101.906 181.251C101.335 182.243 100.674 183.264 99.9232 184.286L98.9617 183.595ZM240.288 178.788V177.586C241.49 177.586 242.692 177.586 243.833 177.526L243.894 178.728C242.992 178.758 242.061 178.788 241.099 178.788C240.829 178.788 240.559 178.788 240.288 178.788ZM233.078 178.337L233.198 177.135C234.4 177.255 235.601 177.346 236.743 177.436L236.683 178.637C235.511 178.577 234.31 178.457 233.078 178.337ZM247.409 177.255C248.61 177.135 249.782 176.955 250.924 176.745L251.134 177.916C249.962 178.157 248.761 178.337 247.529 178.457L247.409 177.255ZM102.507 177.496C102.988 176.444 103.408 175.333 103.769 174.221L104.91 174.581C104.52 175.753 104.099 176.895 103.619 177.976L102.507 177.496ZM225.897 177.346L226.108 176.174C227.309 176.384 228.481 176.564 229.623 176.715L229.472 177.916C228.301 177.766 227.099 177.556 225.897 177.346ZM254.379 175.994C255.551 175.693 256.662 175.303 257.744 174.912L258.164 176.024C257.053 176.444 255.881 176.835 254.679 177.165L254.379 175.994ZM218.837 175.933L219.107 174.762C220.279 175.032 221.451 175.303 222.592 175.513L222.352 176.715C221.18 176.474 220.009 176.204 218.837 175.933ZM211.837 174.101L212.167 172.959C213.339 173.29 214.481 173.62 215.622 173.89L215.322 175.062C214.18 174.762 213.008 174.461 211.837 174.101ZM260.958 173.47C262.01 172.929 263.031 172.298 263.963 171.637L264.654 172.629C263.632 173.32 262.581 173.951 261.499 174.521L260.958 173.47ZM204.957 171.968L205.347 170.826C206.489 171.217 207.631 171.577 208.772 171.908L208.382 173.079C207.24 172.719 206.098 172.358 204.957 171.968ZM104.7 170.796C104.941 169.684 105.151 168.543 105.361 167.311L106.563 167.491C106.353 168.753 106.142 169.925 105.872 171.066L104.7 170.796ZM198.167 169.594L198.587 168.483C199.699 168.903 200.841 169.324 201.952 169.714L201.562 170.826C200.45 170.435 199.308 170.015 198.167 169.594ZM266.667 169.444C267.508 168.663 268.319 167.792 269.04 166.86L269.972 167.611C269.19 168.573 268.379 169.474 267.478 170.315L266.667 169.444ZM191.467 166.95L191.918 165.839C193.029 166.289 194.141 166.74 195.222 167.191L194.802 168.302C193.69 167.852 192.579 167.401 191.467 166.95ZM184.827 164.036L185.338 162.955C186.42 163.435 187.531 163.946 188.613 164.427L188.132 165.508C187.02 165.028 185.939 164.547 184.827 164.036ZM271.023 164.006C271.594 163.015 272.135 161.963 272.615 160.881L273.727 161.362C273.216 162.474 272.646 163.555 272.045 164.607L271.023 164.006ZM105.812 163.796C105.932 162.564 106.052 161.332 106.142 160.221L107.344 160.341C107.254 161.422 107.134 162.654 107.014 163.916L105.812 163.796ZM178.338 160.942L178.879 159.86C179.93 160.401 181.012 160.912 182.093 161.422L181.582 162.534C180.501 162.023 179.419 161.482 178.338 160.942ZM171.938 157.637L172.509 156.585C173.561 157.156 174.612 157.727 175.664 158.268L175.123 159.319C174.041 158.748 172.99 158.178 171.938 157.637ZM273.847 157.547C274.208 156.405 274.508 155.263 274.749 154.152L275.92 154.392C275.68 155.564 275.349 156.735 274.989 157.907L273.847 157.547ZM106.473 156.645C106.623 155.263 106.773 154.092 106.953 153.04L108.125 153.25C107.975 154.272 107.825 155.383 107.674 156.765L106.473 156.645ZM165.689 154.062L166.29 153.04C167.282 153.641 168.333 154.242 169.385 154.843L168.814 155.864C167.762 155.263 166.711 154.662 165.689 154.062ZM159.56 150.216L160.221 149.224C161.213 149.855 162.204 150.516 163.226 151.147L162.595 152.169C161.573 151.538 160.552 150.877 159.56 150.216ZM275.289 150.667C275.379 149.705 275.44 148.744 275.44 147.782C275.44 147.572 275.44 147.362 275.44 147.151L276.641 147.121C276.641 147.332 276.641 147.572 276.641 147.782C276.641 148.774 276.581 149.765 276.491 150.787L275.289 150.667ZM107.795 149.465C108.185 148.203 108.606 147.091 109.147 146.04L110.228 146.581C109.717 147.572 109.297 148.624 108.936 149.795L107.795 149.465ZM153.612 146.1L154.333 145.138C155.264 145.829 156.255 146.521 157.247 147.212L156.556 148.203C155.534 147.512 154.543 146.791 153.612 146.1ZM147.963 141.593L148.745 140.692C149.586 141.443 150.517 142.194 151.478 142.975L150.757 143.907C149.766 143.126 148.835 142.344 147.963 141.593ZM111.25 142.975C111.941 142.194 112.722 141.443 113.593 140.782L113.984 140.482L114.705 141.443L114.314 141.744C113.503 142.314 112.782 143.005 112.151 143.756L111.25 142.975ZM274.388 140.241L275.53 139.911C275.86 141.083 276.131 142.284 276.341 143.486L275.139 143.666C274.959 142.525 274.719 141.353 274.388 140.241ZM116.898 138.319C117.859 137.628 118.881 136.937 119.872 136.276L120.533 137.267C119.542 137.958 118.55 138.619 117.589 139.31L116.898 138.319ZM142.796 136.456L143.727 135.675C144.418 136.516 145.229 137.357 146.131 138.258L145.289 139.13C144.358 138.198 143.517 137.327 142.796 136.456ZM271.504 133.842L272.525 133.211C273.156 134.263 273.757 135.344 274.238 136.456L273.156 136.937C272.676 135.885 272.135 134.833 271.504 133.842ZM122.907 134.353C123.928 133.722 124.98 133.121 126.031 132.52L126.632 133.572C125.581 134.172 124.559 134.773 123.538 135.374L122.907 134.353ZM139.791 131.859C139.551 131.288 139.341 130.717 139.13 130.117L140.272 129.726C140.482 130.297 140.693 130.868 140.903 131.408C141.113 131.889 141.354 132.37 141.654 132.881L140.633 133.481C140.302 132.911 140.002 132.37 139.791 131.859ZM129.216 130.838C130.268 130.297 131.349 129.756 132.431 129.215L132.941 130.297C131.89 130.808 130.808 131.348 129.757 131.889L129.216 130.838ZM267.147 128.344L267.989 127.503C268.86 128.374 269.671 129.275 270.422 130.237L269.491 130.958C268.77 130.056 267.989 129.185 267.147 128.344ZM135.705 127.683C136.637 127.262 137.568 126.872 138.5 126.481L138.139 126.571C137.899 125.43 137.658 124.228 137.508 122.996L138.71 122.846C138.89 124.048 139.1 125.219 139.341 126.331L139.07 126.391L139.491 127.413C138.379 127.863 137.268 128.314 136.186 128.795L135.705 127.683ZM142.405 124.979C143.517 124.558 144.659 124.168 145.8 123.777L146.191 124.919C145.049 125.31 143.907 125.7 142.826 126.121L142.405 124.979ZM261.649 123.927L262.31 122.936C263.332 123.627 264.323 124.348 265.255 125.099L264.504 126.001C263.602 125.279 262.641 124.588 261.649 123.927ZM149.225 122.696C150.367 122.335 151.539 122.005 152.68 121.674L153.011 122.846C151.869 123.146 150.697 123.477 149.586 123.837L149.225 122.696ZM255.46 120.533L255.941 119.451C257.053 119.962 258.164 120.502 259.186 121.073L258.645 122.095C257.624 121.554 256.572 121.013 255.46 120.533ZM156.165 120.743C157.307 120.442 158.509 120.172 159.68 119.902L159.951 121.073C158.779 121.344 157.607 121.614 156.466 121.915L156.165 120.743ZM163.196 119.181C164.367 118.94 165.539 118.73 166.741 118.52L166.951 119.691C165.779 119.872 164.608 120.112 163.436 120.352L163.196 119.181ZM136.937 115.786L138.139 115.756C138.169 116.987 138.229 118.189 138.319 119.301L137.117 119.391C137.027 118.249 136.967 117.047 136.937 115.786ZM248.821 118.069L249.151 116.927C250.323 117.288 251.495 117.648 252.606 118.069L252.186 119.181C251.104 118.79 249.962 118.399 248.821 118.069ZM170.316 117.889C171.488 117.708 172.689 117.528 173.891 117.348L174.071 118.55C172.84 118.73 171.638 118.88 170.496 119.09L170.316 117.889ZM177.436 116.897C178.608 116.747 179.81 116.627 181.012 116.477L181.132 117.678C179.93 117.799 178.758 117.949 177.587 118.099L177.436 116.897ZM184.587 116.116C185.759 115.996 186.96 115.906 188.162 115.816L188.252 117.017C187.05 117.138 185.849 117.228 184.707 117.318L184.587 116.116ZM241.881 116.447L242.091 115.275C243.293 115.485 244.494 115.726 245.636 115.996L245.366 117.168C244.224 116.897 243.052 116.657 241.881 116.447ZM191.767 115.575C192.969 115.485 194.171 115.425 195.373 115.365L195.433 116.567C194.261 116.627 193.059 116.687 191.857 116.777L191.767 115.575ZM198.948 115.155C200.15 115.095 201.351 115.035 202.553 115.004L202.613 116.206C201.411 116.266 200.21 116.296 199.008 116.356L198.948 115.155ZM206.128 114.854C207.33 114.794 208.532 114.764 209.734 114.734L209.764 115.936C208.592 115.966 207.39 116.026 206.188 116.056L206.128 114.854ZM234.82 115.545L234.91 114.343C236.112 114.434 237.344 114.584 238.516 114.704L238.365 115.906C237.224 115.756 236.022 115.635 234.82 115.545ZM213.339 114.584C214.541 114.554 215.742 114.494 216.914 114.434L216.974 115.635C215.772 115.695 214.571 115.756 213.369 115.786L213.339 114.584ZM220.489 114.313C221.21 114.283 221.931 114.253 222.652 114.193C223.133 114.163 223.614 114.133 224.095 114.133L224.155 115.335C223.674 115.365 223.223 115.365 222.743 115.395C221.992 115.425 221.27 115.455 220.549 115.515L220.489 114.313ZM227.82 115.275H227.7V114.073H227.82C228.992 114.073 230.163 114.103 231.305 114.133L231.275 115.335C230.133 115.305 228.992 115.275 227.82 115.275ZM136.907 112.18C136.907 111.069 136.937 109.897 136.967 108.575L138.169 108.605C138.139 109.897 138.139 111.069 138.109 112.18H136.907ZM137.117 104.94C137.148 104.068 137.178 103.197 137.238 102.326L137.268 101.365L138.469 101.425L138.439 102.386C138.379 103.257 138.349 104.129 138.319 105L137.117 104.94ZM137.418 97.7893C137.478 96.4674 137.508 95.2957 137.508 94.2141L138.71 94.2441C138.71 95.3257 138.65 96.4974 138.62 97.8193L137.418 97.7893ZM137.358 87.0937L138.56 87.0035C138.62 88.1452 138.68 89.3169 138.71 90.6088L137.508 90.6389C137.478 89.347 137.448 88.2053 137.358 87.0937ZM136.366 80.0935L137.538 79.793C137.809 80.9046 138.049 82.1064 138.229 83.3682L137.027 83.5485C136.847 82.3167 136.637 81.145 136.366 80.0935ZM133.662 73.6941L134.654 73.0331C135.315 74.0246 135.886 75.1062 136.396 76.3079L135.285 76.7586C134.834 75.647 134.263 74.6255 133.662 73.6941ZM65.1023 72.0116L65.1624 70.8099C66.1839 70.87 67.2354 70.9 68.347 70.9H68.7376V72.1018H68.347C67.2354 72.1018 66.1538 72.0717 65.1023 72.0116ZM72.3128 70.7798C73.4545 70.7198 74.6262 70.5996 75.858 70.4794L75.9782 71.6812C74.7163 71.8013 73.5146 71.9215 72.3729 71.9816L72.3128 70.7798ZM57.9218 70.9L58.2222 69.7283C59.3339 69.9987 60.5056 70.2391 61.6773 70.4193L61.497 71.6211C60.2652 71.4408 59.0635 71.2005 57.9218 70.9ZM79.4032 70.0287C80.5148 69.8785 81.6865 69.6983 82.9484 69.488L83.1286 70.6597C81.8367 70.9 80.665 71.0803 79.5534 71.2305L79.4032 70.0287ZM128.645 69.1274L129.216 68.0759C130.328 68.6768 131.349 69.3978 132.25 70.209L131.439 71.1103C130.598 70.3592 129.667 69.6983 128.645 69.1274ZM86.4335 68.9171C87.6052 68.7068 88.7769 68.4965 89.9486 68.2862L90.1589 69.4579C89.0172 69.6682 87.8455 69.8785 86.6437 70.0888L86.4335 68.9171ZM51.0718 68.3162L51.6426 67.2647C52.6641 67.8055 53.7457 68.2862 54.8273 68.7068L54.4067 69.8184C53.265 69.3678 52.1233 68.8871 51.0718 68.3162ZM93.5238 67.6252C94.6955 67.4149 95.8973 67.2046 97.069 66.9943L97.2793 68.166C96.0775 68.3763 94.9059 68.5866 93.7341 68.7969L93.5238 67.6252ZM122.005 66.9643L122.216 65.7926C123.448 66.0329 124.649 66.3333 125.761 66.6939L125.43 67.8055C124.349 67.475 123.207 67.1746 122.005 66.9643ZM100.614 66.3634C101.876 66.1531 103.048 66.0029 104.189 65.8226L104.34 67.0244C103.198 67.1746 102.056 67.3548 100.794 67.5651L100.614 66.3634ZM107.765 65.432C109.026 65.3119 110.228 65.2217 111.37 65.1616L111.43 66.3634C110.288 66.4235 109.117 66.5136 107.885 66.6338L107.765 65.432ZM114.975 66.2733V65.0715C116.237 65.0715 117.439 65.1316 118.61 65.2518L118.52 66.4535C117.379 66.3634 116.207 66.3033 114.975 66.2733ZM45.033 64.2303L45.8141 63.2989C46.6854 64.05 47.6468 64.741 48.6382 65.432L47.9472 66.4235C46.9257 65.7325 45.9343 64.9814 45.033 64.2303ZM40.0757 58.8825L41.0672 58.1915C41.7281 59.1228 42.4792 60.0542 43.2904 60.8954L42.3891 61.7066C41.5479 60.8053 40.7667 59.8439 40.0757 58.8825ZM36.6207 52.423L37.7623 52.0024C38.1529 53.114 38.6336 54.1656 39.2044 55.2171L38.1229 55.7579C37.552 54.6763 37.0413 53.5647 36.6207 52.423ZM34.9983 45.3026L36.2001 45.1824C36.3202 46.3542 36.5005 47.5259 36.7709 48.6375L35.5992 48.9079C35.3288 47.7362 35.1185 46.5344 34.9983 45.3026ZM34.818 41.6373C34.818 40.4355 34.9082 39.2037 35.0284 38.002L36.2301 38.1522C36.1099 39.2938 36.0498 40.4656 36.0198 41.6373H34.818Z" fill="#87C0F4"/>
<path d="M5.76562 249.751L6.96738 249.691C6.96738 249.691 6.99743 250.382 7.23778 251.374L6.06606 251.614C5.82571 250.503 5.79567 249.782 5.76562 249.751Z" fill="#87C0F4"/>
<path d="M140.363 79.6436C126.542 86.5537 124.74 101.576 123.538 110.589C122.336 119.602 117.229 131.92 109.417 138.53C101.606 145.139 94.9963 152.35 91.9919 168.273C88.9875 184.196 93.1937 195.313 88.6871 209.734C84.1805 224.155 70.0599 243.984 70.9612 260.207C71.8625 276.431 85.6827 274.628 85.6827 274.628H268.95C268.95 274.628 277.753 253.327 270.152 227.46C263.543 204.927 243.714 201.622 238.306 172.179C235.512 156.977 235.902 152.65 224.786 138.53C213.339 123.988 205.558 123.808 200.45 110.589C195.343 97.3695 192.339 72.4331 161.994 79.944C161.994 79.944 154.183 72.7335 140.363 79.6436Z" fill="#1F1F39"/>
<path d="M247.289 274.479H200.15L188.433 228.962L238.396 221.061L247.289 274.479Z" fill="#F9D2DD"/>
<path d="M40.6168 244.885C31.0028 243.082 15.38 233.168 17.1826 212.137C18.9852 191.106 58.3427 129.216 58.3427 129.216C58.3427 129.216 52.0335 122.005 54.7375 113.293C57.4414 104.58 67.0555 102.176 73.3647 101.876C79.6739 101.575 84.1805 103.078 84.1805 103.078L98.0007 83.5491C98.0007 83.5491 101.005 79.6434 104.61 81.446C108.216 83.2486 101.005 94.9658 101.005 94.9658L94.3954 108.486C94.3954 108.486 93.1936 120.203 90.4897 126.812C87.7857 133.422 86.2835 134.924 86.2835 134.924L71.8625 182.393L88.3866 177.887L73.3647 240.078C73.3647 240.078 50.2309 246.687 40.6168 244.885Z" fill="#FFEBF0"/>
<path d="M73.3647 240.079L88.3866 177.888L73.605 181.914L58.9436 243.383C69.0684 242.061 73.3647 240.079 73.3647 240.079Z" fill="#F9ACC0"/>
<path d="M188.433 228.962L192.579 245.126L243.804 253.628L238.396 221.061L188.433 228.962Z" fill="#F9ACC0"/>
<path d="M243.713 243.984C243.713 243.984 236.803 175.784 202.553 165.269C168.303 154.753 144.569 158.058 133.753 161.363C122.937 164.668 76.6694 179.389 76.6694 179.389L66.7549 245.186L93.4939 242.482L88.9874 274.629H207.42C207.42 274.629 204.957 255.701 201.952 243.984H243.713Z" fill="#3D5CFF"/>
<path d="M243.713 243.984C243.713 243.984 236.803 175.784 202.553 165.269C168.303 154.753 144.569 158.058 133.753 161.363C122.937 164.668 76.6694 179.389 76.6694 179.389L66.7549 245.186L93.4939 242.482L88.9874 274.629H207.42C207.42 274.629 204.957 255.701 201.952 243.984H243.713Z" fill="#3D5CFF"/>
<path d="M237.134 215.322C232.537 210.154 220.309 198.107 205.618 197.416C193.48 196.845 190.476 189.394 187.802 182.845C186.089 178.638 184.497 174.643 180.802 172.389C174.102 168.303 167.222 170.496 158.569 173.26C154.724 174.492 150.758 175.754 146.311 176.625C138.53 178.158 133.783 174.643 131.139 171.428C128.315 167.973 127.324 164.217 127.263 164.037C127.173 163.707 127.384 163.376 127.684 163.316C128.015 163.226 128.345 163.436 128.405 163.737C128.405 163.767 129.397 167.432 132.071 170.677C135.616 174.973 140.303 176.565 146.071 175.454C150.427 174.582 154.393 173.321 158.209 172.119C166.831 169.355 174.282 166.981 181.433 171.368C185.458 173.831 187.231 178.188 188.944 182.394C191.587 188.943 194.321 195.703 205.708 196.214C220.85 196.905 233.378 209.253 238.065 214.511C238.276 214.751 238.276 215.142 238.005 215.352C237.855 215.472 237.705 215.532 237.585 215.532C237.404 215.532 237.254 215.472 237.134 215.322Z" fill="#EAEAFF"/>
<path d="M147.813 269.251C147.273 255.431 140.122 253.418 131.86 251.104C128.014 250.023 124.019 248.911 120.564 246.478C112.962 241.16 113.864 235.542 114.915 229.022C115.396 226.048 115.907 222.683 115.726 218.957C115.216 209.343 107.464 206.76 96.7688 203.214C94.7558 202.554 92.6528 201.832 90.4896 201.051C84.7512 198.978 81.6867 194.171 81.6267 187.201C81.5666 182.034 83.1589 177.557 83.219 177.347L84.3606 177.737C84.3306 177.767 82.7683 182.244 82.8284 187.201C82.9185 193.691 85.6225 197.987 90.9102 199.91C93.0433 200.691 95.1464 201.382 97.1593 202.043C107.915 205.618 116.387 208.442 116.958 218.867C117.169 222.713 116.628 226.138 116.147 229.172C115.096 235.782 114.344 240.589 121.315 245.456C124.619 247.77 128.495 248.851 132.251 249.903C140.603 252.246 148.504 254.439 149.075 269.161C149.135 271.024 149.316 272.796 149.556 274.388L148.294 274.599C148.054 272.976 147.873 271.174 147.813 269.251Z" fill="#EAEAFF"/>
<path d="M175.514 215.833C174.102 215.623 172.66 215.383 171.067 215.112C162.655 213.61 161.513 208.142 160.312 202.374C159.591 198.889 158.809 195.283 156.586 191.828C153.011 186.33 146.972 187.712 138.62 189.635C133.242 190.867 127.173 192.249 120.413 192.069C115.336 191.918 108.426 189.996 104.19 181.553C101.696 176.566 101.335 171.699 101.335 171.489L102.537 171.398C102.537 171.459 102.898 176.266 105.301 181.043C108.486 187.382 113.593 190.687 120.473 190.867C127.083 191.047 133.062 189.665 138.38 188.463C146.882 186.511 153.582 184.978 157.638 191.167C160.011 194.803 160.822 198.678 161.543 202.103C162.775 207.932 163.737 212.559 171.338 213.911C172.9 214.181 174.342 214.421 175.754 214.632C183.956 215.923 189.394 216.765 196.995 224.937L196.064 225.778C188.733 217.906 183.475 217.095 175.514 215.833Z" fill="#EAEAFF"/>
<path d="M129.246 112.392C125.04 115.997 127.444 123.508 133.152 125.611C138.86 127.714 140.363 126.212 140.363 126.212L137.659 111.791C137.659 111.791 133.452 108.786 129.246 112.392Z" fill="#F9ACC0"/>
<path d="M139.461 131.92C142.766 139.431 149.676 141.534 149.676 141.534C149.676 141.534 150.277 146.942 149.075 152.35C147.873 157.758 146.371 160.762 146.371 160.762C146.371 160.762 148.174 164.668 160.792 165.269C173.411 165.87 175.213 160.762 175.213 160.762C175.213 160.762 173.711 152.35 174.012 146.341C174.312 140.332 176.115 131.019 176.115 131.019C176.115 131.019 184.227 133.723 189.334 128.615C194.441 123.508 193.24 113.894 186.931 113.293C180.621 112.692 177.316 118.1 177.316 118.1C177.316 118.1 168.303 113.894 164.698 106.984C161.093 100.074 160.792 95.2666 160.792 95.2666C160.792 95.2666 143.367 97.6701 137.358 111.791C137.358 111.791 136.156 124.409 139.461 131.92Z" fill="#F9D2DD"/>
<path fill-rule="evenodd" clip-rule="evenodd" d="M146.521 119.602C145.443 119.602 144.569 118.526 144.569 117.198C144.569 115.871 145.443 114.795 146.521 114.795C147.6 114.795 148.474 115.871 148.474 117.198C148.474 118.526 147.6 119.602 146.521 119.602Z" fill="#1F1F39"/>
<path fill-rule="evenodd" clip-rule="evenodd" d="M161.844 120.503C160.765 120.503 159.891 119.427 159.891 118.1C159.891 116.772 160.765 115.696 161.844 115.696C162.922 115.696 163.797 116.772 163.797 118.1C163.797 119.427 162.922 120.503 161.844 120.503Z" fill="#1F1F39"/>
<path d="M158.689 126.813C159.891 126.512 162.295 124.71 162.295 124.71C162.295 124.71 162.895 124.409 163.196 124.71C163.496 125.01 161.574 128.435 159.891 128.916C157.788 129.517 156.286 128.615 155.385 127.414C154.483 126.212 155.685 126.512 155.685 126.512C155.685 126.512 157.488 127.113 158.689 126.813Z" fill="#F95368"/>
<path d="M152.711 117.289C152.35 117.92 152.02 118.581 151.809 119.242C151.719 119.573 151.659 119.903 151.689 120.204C151.689 120.294 151.719 120.354 151.719 120.414L151.809 120.654C151.869 120.804 151.96 120.955 152.05 121.105C152.41 121.646 153.131 121.976 153.852 122.006C153.492 122.126 153.101 122.126 152.711 122.036C152.32 121.946 151.96 121.736 151.689 121.405C151.539 121.255 151.449 121.075 151.329 120.895L151.209 120.624C151.178 120.534 151.148 120.414 151.118 120.294C151.028 119.873 151.118 119.452 151.209 119.062C151.449 118.311 151.839 117.65 152.29 117.019C152.771 116.418 153.282 115.877 153.882 115.396C153.492 116.027 153.101 116.658 152.711 117.289Z" fill="#1F1F39"/>
<path d="M214.21 243.984C212.798 239.507 207.571 223.554 201.652 213.039C194.742 200.721 186.029 192.008 186.029 192.008C186.029 192.008 193.48 213.579 195.643 220.85C197.776 227.97 203.244 249.632 203.244 249.632C202.824 247.649 202.403 245.726 201.953 243.984H214.21Z" fill="#224BF4"/>
<path d="M161.513 109.928C162.114 109.718 162.715 109.568 163.346 109.538C163.977 109.507 164.638 109.568 165.239 109.778C165.84 109.988 166.441 110.319 166.771 110.89C166.2 110.649 165.629 110.559 165.059 110.469C164.488 110.409 163.917 110.409 163.376 110.439C162.805 110.469 162.235 110.529 161.664 110.619L159.891 110.89C160.372 110.469 160.913 110.168 161.513 109.928Z" fill="#1F1F39"/>
<path d="M143.457 108.036C144.238 107.945 145.019 107.975 145.801 108.156C146.582 108.336 147.303 108.636 147.964 109.057C148.294 109.267 148.595 109.538 148.865 109.838C149.105 110.139 149.346 110.499 149.376 110.89C149.165 110.589 148.865 110.349 148.565 110.169C148.264 109.988 147.934 109.838 147.603 109.688C146.942 109.418 146.251 109.207 145.59 109.027C144.899 108.877 144.208 108.757 143.487 108.727C142.766 108.727 142.015 108.727 141.264 108.787C141.925 108.366 142.676 108.156 143.457 108.036Z" fill="#1F1F39"/>
<path fill-rule="evenodd" clip-rule="evenodd" d="M277.063 274.328V274.929H30.7031V274.328H277.063Z" fill="#1F1F39"/>
<path d="M79.4937 130.958C79.3135 130.808 75.1974 127.203 74.2961 121.164C73.8455 118.22 74.0257 114.044 75.8885 111.85C76.4293 111.249 77.0001 110.919 77.6009 110.919C79.1632 110.919 79.7341 112.091 80.6955 114.044C80.9959 114.674 81.3564 115.365 81.7771 116.177C83.5496 119.391 88.597 124.469 88.6271 124.529C88.7473 124.649 88.7473 124.829 88.6271 124.949C88.5069 125.07 88.3266 125.07 88.2065 124.949C87.9962 124.739 83.0389 119.782 81.2363 116.477C80.7856 115.666 80.4551 114.945 80.1246 114.314C79.1632 112.331 78.7126 111.52 77.5709 111.52C77.1803 111.52 76.7297 111.79 76.3091 112.241C75.2275 113.503 74.176 116.597 74.8369 121.074C75.7082 126.902 79.7942 130.478 79.8542 130.508C79.9744 130.628 80.0045 130.808 79.8843 130.928C79.8542 130.988 79.7641 131.018 79.674 131.018C79.6139 131.018 79.5238 130.988 79.4937 130.958Z" fill="#1F1F39"/>
<path d="M66.2142 120.053C61.5574 118.491 61.4973 116.268 61.4973 116.177C61.4973 115.997 61.6175 115.877 61.7978 115.877C61.948 115.877 62.0982 115.997 62.0982 116.177C62.0982 116.207 62.2184 118.1 66.3945 119.512C70.6908 120.954 74.1458 118.641 74.1758 118.641C74.326 118.551 74.5063 118.581 74.5964 118.731C74.6866 118.881 74.6566 119.062 74.5063 119.152C74.4162 119.152 72.3131 120.534 69.3388 120.564C68.3774 120.564 67.3258 120.414 66.2142 120.053Z" fill="#1F1F39"/>
<path d="M165.299 142.135C165.299 142.135 157.848 144.358 149.736 142.075C149.856 143.577 150.067 147.963 149.075 152.35C148.985 152.77 148.895 153.161 148.805 153.521C151.509 153.551 155.745 153.161 160.192 150.847C167.703 146.942 168.904 141.233 168.904 141.233C168.904 141.233 168.604 141.233 165.299 142.135Z" fill="#F9ACC0"/>
<path d="M56.3897 185.308C56.3597 185.158 56.4498 184.978 56.6301 184.948L76.399 180.922C76.5492 180.892 76.7295 180.982 76.7595 181.162C76.7895 181.312 76.6994 181.493 76.5191 181.523L56.7502 185.548C56.7202 185.548 56.7202 185.548 56.6902 185.548C56.5399 185.548 56.4198 185.458 56.3897 185.308Z" fill="#1F1F39"/>
<path d="M156.136 143.487C154.573 143.427 153.011 143.157 151.449 142.736C150.818 142.556 150.187 142.376 149.586 142.135C149.436 142.075 149.346 141.895 149.406 141.745C149.466 141.594 149.646 141.504 149.796 141.564C150.397 141.775 150.998 141.985 151.629 142.135C153.131 142.556 154.663 142.796 156.196 142.856C162.655 143.157 167.432 141.384 167.492 141.384C167.642 141.324 167.823 141.414 167.883 141.564C167.943 141.715 167.853 141.895 167.703 141.955C167.612 141.985 163.436 143.517 157.608 143.517C157.127 143.517 156.616 143.517 156.136 143.487Z" fill="#1F1F39"/>
<path d="M136.908 124.559C136.908 124.529 136.878 122.786 135.135 119.602C133.422 116.477 131.98 115.846 131.98 115.816C131.83 115.756 131.74 115.576 131.83 115.426C131.92 115.275 132.071 115.185 132.221 115.245C132.281 115.275 133.843 115.936 135.676 119.271C137.508 122.606 137.508 124.439 137.508 124.529C137.508 124.739 137.388 124.859 137.208 124.859C137.028 124.859 136.908 124.739 136.908 124.559Z" fill="#1F1F39"/>
<path d="M201.442 243.714C200.33 239.928 198.708 234.069 197.145 227.55C194.171 215.082 185.819 192.369 185.729 192.128C185.669 191.978 185.759 191.798 185.909 191.738C186.059 191.677 186.24 191.768 186.3 191.918C186.39 192.158 194.742 214.901 197.716 227.4C199.279 233.919 200.901 239.778 201.983 243.533C202.043 243.683 201.922 243.864 201.772 243.894C201.772 243.894 201.742 243.924 201.742 243.924C201.622 243.924 201.502 243.834 201.442 243.714Z" fill="#1F1F39"/>
<path d="M114.525 51.7031C114.495 52.0937 114.525 52.304 114.525 52.304C114.525 52.304 114.525 52.0937 114.525 51.7031Z" fill="#EAEAFF"/>
<path fill-rule="evenodd" clip-rule="evenodd" d="M95.0262 22.9512C91.6012 22.9512 88.8372 25.7152 88.8372 29.1402V47.1365C88.8372 50.5615 91.6012 53.3255 95.0262 53.3255H104.31V64.1714C104.31 65.0427 105.001 65.7337 105.872 65.7337H106.353C106.833 65.8238 107.374 65.7337 107.765 65.3431L120.503 53.3556H135.255C138.68 53.3556 141.444 50.5916 141.444 47.1665V29.1402C141.414 25.7152 138.65 22.9512 135.225 22.9512H95.0262ZM105.211 38.1834C102.207 32.4751 103.709 29.1703 103.709 29.1703C103.709 29.1703 109.147 28.4492 112.121 32.7755C114.735 36.5611 115.096 40.3466 115.126 41.7887C115.246 40.7071 115.967 38.3036 119.933 35.4795C124.139 32.4751 128.044 33.6768 128.044 33.6768C128.044 33.6768 130.748 43.8918 114.224 46.2953C114.224 46.2953 108.215 43.8918 105.211 38.1834Z" fill="white"/>
<path d="M120.233 40.8871C123.838 37.8827 126.542 35.1787 126.542 35.1787C126.542 35.1787 124.439 36.08 121.735 38.1831C119.031 40.2862 114.224 45.6941 114.224 45.6941C114.224 45.6941 116.628 43.8914 120.233 40.8871Z" fill="white"/>
<path d="M109.117 38.1829C111.821 43.2904 114.224 45.6939 114.224 45.6939C114.224 45.6939 112.722 42.389 110.919 38.7838C109.117 35.1785 106.112 31.5732 106.112 31.5732C106.112 31.5732 106.413 33.0754 109.117 38.1829Z" fill="white"/>
<path fill-rule="evenodd" clip-rule="evenodd" d="M211.747 71.9229C208.322 71.9229 205.558 74.6869 205.558 78.1119V96.1082C205.558 99.5332 208.322 102.297 211.747 102.297H226.498L239.237 114.285C239.628 114.675 240.168 114.765 240.649 114.675H241.13C242.001 114.675 242.692 113.984 242.692 113.113V102.267H251.976C255.401 102.267 258.165 99.5032 258.165 96.0781V78.0818C258.135 74.6869 255.371 71.9229 251.946 71.9229H211.747ZM230.584 95.0266C230.524 95.0266 230.494 95.0266 230.434 94.9966L224.035 92.8034C223.584 92.6531 223.284 92.2325 223.284 91.7518V80.1248C223.284 79.4939 223.764 79.0132 224.395 78.9832C224.516 78.9832 224.636 79.0132 224.756 79.0433L230.404 80.9661C230.825 81.1163 231.125 81.5369 231.125 81.9876V94.5159V94.5159C231.125 94.8163 230.885 95.0266 230.584 95.0266ZM233.258 95.0266C232.988 95.1167 232.687 94.9665 232.597 94.6961C232.567 94.636 232.567 94.5759 232.567 94.5159V81.9876C232.567 81.5369 232.868 81.1163 233.288 80.9661L238.937 79.0433C239.538 78.8329 240.168 79.1634 240.349 79.7343C240.379 79.8544 240.409 79.9746 240.409 80.0948V91.7218C240.409 92.2626 240.108 92.6832 239.658 92.8334L233.258 95.0266Z" fill="white"/>
<path fill-rule="evenodd" clip-rule="evenodd" d="M169.655 127.714C166.42 127.714 163.797 126.1 163.797 124.109C163.797 122.118 166.42 120.504 169.655 120.504C172.891 120.504 175.514 122.118 175.514 124.109C175.514 126.1 172.891 127.714 169.655 127.714Z" fill="#F9ACC0"/>
<path d="M137.298 121.555C137.418 123.358 137.629 125.221 137.989 127.023C138.95 127.444 140.122 127.714 141.414 127.714C144.659 127.714 147.273 126.092 147.273 124.109C147.273 122.126 144.659 120.504 141.414 120.504C139.792 120.504 138.35 120.894 137.298 121.555Z" fill="#F9ACC0"/>
<path d="M176.085 131.26C176.115 131.109 176.115 131.019 176.115 131.019C176.115 131.019 177.827 131.59 180.171 131.71C180.141 131.5 180.081 131.29 180.02 131.019C178.819 127.414 182.724 120.504 182.724 120.504C182.724 120.504 178.518 121.405 176.716 127.414C176.265 128.916 176.085 130.298 176.085 131.26Z" fill="#F9ACC0"/>
<path d="M176.175 128.435C176.024 128.375 175.934 128.224 175.994 128.044C176.024 127.954 176.625 126.151 178.728 123.147C180.862 120.113 183.235 118.881 183.355 118.851C183.505 118.791 183.686 118.851 183.746 118.971C183.806 119.121 183.746 119.301 183.626 119.361C183.596 119.361 181.252 120.563 179.239 123.477C177.196 126.422 176.565 128.194 176.565 128.194C176.505 128.375 176.385 128.465 176.265 128.465C176.235 128.465 176.205 128.465 176.175 128.435Z" fill="#1F1F39"/>
<path d="M101.336 206.129C101.336 206.129 97.7003 219.979 89.288 231.095C83.4595 238.817 73.1544 243.203 67.356 245.156L93.2839 242.512L101.336 206.129Z" fill="#224BF4"/>
<path d="M93.464 242.782C93.3138 242.752 93.1936 242.602 93.1936 242.452C93.1936 242.362 94.4254 232.717 96.4984 223.494C98.5715 214.271 103.378 197.806 103.409 197.626C103.469 197.476 103.619 197.386 103.769 197.416C103.919 197.476 104.009 197.626 103.979 197.776C103.919 197.927 99.1423 214.391 97.0693 223.584C94.9962 232.778 93.7945 242.392 93.7644 242.482C93.7644 242.662 93.6443 242.782 93.494 242.782H93.464Z" fill="#1F1F39"/>
</svg>
