<svg width="309" height="308" viewBox="0 0 309 308" fill="none" xmlns="http://www.w3.org/2000/svg">
<path fill-rule="evenodd" clip-rule="evenodd" d="M248.203 0.0273438C281.389 0.0273438 308.291 26.9296 308.291 60.1151V247.589C308.291 280.775 281.389 307.677 248.203 307.677H60.7291C27.5436 307.677 0.641357 280.775 0.641357 247.589V60.1151C0.641357 26.9296 27.5436 0.0273438 60.7292 0.0273438H248.203Z" fill="#EAEAFF"/>
<path fill-rule="evenodd" clip-rule="evenodd" d="M145.783 240.288C145.633 239.988 145.723 239.627 146.023 239.477L149.178 237.765C149.478 237.614 149.839 237.705 149.989 238.005C150.139 238.305 150.049 238.666 149.749 238.816L146.594 240.529C146.504 240.589 146.414 240.589 146.324 240.589C146.113 240.589 145.903 240.469 145.783 240.288ZM152.122 236.833C151.972 236.533 152.062 236.172 152.363 236.022L155.517 234.31C155.818 234.159 156.178 234.25 156.328 234.55C156.479 234.85 156.388 235.211 156.088 235.361L152.933 237.074C152.843 237.134 152.753 237.134 152.663 237.134C152.453 237.134 152.242 237.014 152.122 236.833Z" fill="#EAEAFF"/>
<path fill-rule="evenodd" clip-rule="evenodd" d="M67.4887 226.589C67.4887 226.258 67.729 225.988 68.0595 225.958C69.2011 225.928 70.4029 225.837 71.6047 225.687C71.9352 225.657 72.2356 225.898 72.2656 226.228C72.2957 226.558 72.0554 226.859 71.7249 226.889C70.4931 227.009 69.2913 227.099 68.0895 227.159C68.1196 227.159 68.0895 227.159 68.0895 227.159C67.7591 227.159 67.4887 226.919 67.4887 226.589ZM64.4542 227.129C63.1924 227.069 61.9606 226.919 60.8489 226.709H60.8189C60.4885 226.649 60.2781 226.348 60.3382 226.018C60.3983 225.687 60.6987 225.477 61.0292 225.537H61.0893C62.1408 225.747 63.3125 225.867 64.5443 225.928C64.8748 225.958 65.1152 226.228 65.1152 226.558C65.0852 226.859 64.8148 227.129 64.4843 227.129H64.4542ZM74.6691 225.867C74.609 225.537 74.8494 225.237 75.1499 225.176C76.2915 224.996 77.4632 224.756 78.665 224.515C78.9955 224.455 79.2959 224.666 79.3861 224.966C79.4462 225.297 79.2359 225.597 78.9354 225.687C77.7337 225.958 76.5319 226.168 75.3602 226.348C75.3301 226.378 75.3001 226.378 75.27 226.378C74.9696 226.378 74.7292 226.168 74.6691 225.867ZM57.2437 225.898C56.0419 225.597 54.8702 225.237 53.7586 224.846C53.4582 224.726 53.2779 224.395 53.3981 224.095C53.5183 223.794 53.8488 223.614 54.1492 223.734C55.2608 224.125 56.4024 224.455 57.5441 224.756C57.8746 224.846 58.0549 225.176 57.9648 225.477C57.9047 225.747 57.6643 225.928 57.3939 225.928C57.3338 225.928 57.3038 225.928 57.2437 225.898ZM81.7595 224.455C81.6694 224.125 81.8797 223.794 82.2102 223.734C83.3218 223.464 84.4935 223.133 85.6652 222.803C85.9957 222.713 86.3262 222.893 86.4163 223.224C86.5065 223.554 86.3262 223.885 85.9957 223.975C84.824 224.305 83.6222 224.636 82.4805 224.906C82.4205 224.906 82.3904 224.906 82.3303 224.906C82.0599 224.906 81.8196 224.726 81.7595 224.455ZM50.3636 223.494C49.252 222.983 48.1404 222.442 47.0889 221.842C46.7885 221.691 46.6983 221.301 46.8485 221.03C46.9987 220.73 47.3893 220.64 47.6597 220.79C48.6812 221.361 49.7327 221.902 50.8143 222.382C51.1147 222.533 51.265 222.863 51.1147 223.164C51.0547 223.404 50.8143 223.554 50.604 223.554C50.5139 223.554 50.4237 223.524 50.3636 223.494ZM88.6997 222.503C88.6096 222.172 88.7597 221.842 89.0902 221.751C90.2018 221.391 91.3435 221.03 92.5152 220.61C92.8157 220.49 93.1762 220.67 93.2663 220.97C93.3565 221.271 93.2063 221.631 92.9058 221.721C91.7642 222.112 90.5925 222.503 89.4508 222.863C89.3907 222.893 89.3306 222.923 89.2705 222.923C89.0301 222.923 88.7898 222.773 88.6997 222.503ZM95.5196 220.159C95.3995 219.859 95.5497 219.498 95.8801 219.378C96.9918 218.957 98.1034 218.537 99.245 218.086C99.5455 217.966 99.906 218.116 100.026 218.417C100.146 218.717 99.9961 219.078 99.6957 219.198C98.554 219.648 97.4124 220.069 96.3007 220.49C96.2406 220.55 96.1505 220.55 96.0904 220.55C95.8501 220.55 95.6098 220.399 95.5196 220.159ZM43.9944 219.889C43.0029 219.168 42.0415 218.417 41.1101 217.605C40.8698 217.395 40.8397 217.005 41.05 216.764C41.2603 216.524 41.6509 216.494 41.8913 216.704C42.7626 217.485 43.6939 218.206 44.6553 218.897C44.9257 219.078 44.9858 219.468 44.8055 219.738C44.7154 219.919 44.5351 220.009 44.3549 220.009C44.2347 220.009 44.1145 219.979 43.9944 219.889ZM237.717 219.498C237.387 219.438 237.177 219.138 237.237 218.807C237.297 218.477 237.597 218.266 237.928 218.326C239.039 218.507 240.181 218.537 241.353 218.387C241.683 218.356 241.984 218.567 242.014 218.897C242.044 219.228 241.833 219.528 241.503 219.558C240.932 219.618 240.361 219.678 239.82 219.678C239.129 219.678 238.408 219.618 237.717 219.498ZM244.327 218.266C244.207 217.966 244.357 217.605 244.658 217.485C245.679 217.095 246.731 216.554 247.782 215.893C248.053 215.713 248.443 215.803 248.623 216.073C248.804 216.344 248.713 216.734 248.443 216.914C247.331 217.605 246.22 218.176 245.138 218.597C245.018 218.627 244.958 218.657 244.898 218.657C244.658 218.657 244.417 218.507 244.327 218.266ZM234.142 218.296C233.091 217.756 232.039 217.095 231.018 216.253C230.747 216.043 230.717 215.653 230.927 215.412C231.138 215.142 231.528 215.112 231.769 215.322C232.7 216.103 233.691 216.734 234.653 217.215C234.953 217.365 235.074 217.726 234.923 218.026C234.833 218.236 234.623 218.356 234.413 218.356C234.322 218.356 234.232 218.326 234.142 218.296ZM102.249 217.545C102.129 217.245 102.28 216.884 102.58 216.764C103.692 216.314 104.803 215.833 105.885 215.352C106.185 215.232 106.546 215.352 106.666 215.653C106.786 215.953 106.666 216.313 106.365 216.434C105.254 216.914 104.142 217.395 103.031 217.846C102.971 217.906 102.88 217.906 102.79 217.906C102.55 217.906 102.34 217.756 102.249 217.545ZM38.4963 215.022C37.6851 214.12 36.904 213.159 36.1829 212.167C35.9726 211.897 36.0327 211.537 36.3031 211.326C36.5735 211.116 36.934 211.176 37.1443 211.446C37.8353 212.408 38.5864 213.309 39.3676 214.18C39.5779 214.421 39.5779 214.811 39.3376 215.022C39.2474 215.172 39.0972 215.232 38.947 215.232C38.7967 215.232 38.6165 215.172 38.4963 215.022ZM108.859 214.661C108.709 214.361 108.859 214 109.16 213.85C110.241 213.339 111.353 212.828 112.404 212.318C112.705 212.167 113.065 212.288 113.215 212.588C113.366 212.888 113.246 213.249 112.945 213.399C111.864 213.91 110.752 214.451 109.67 214.931C109.58 214.992 109.49 215.022 109.4 215.022C109.16 215.022 108.949 214.901 108.859 214.661ZM250.576 214.721C250.366 214.451 250.396 214.09 250.666 213.88C251.538 213.159 252.439 212.378 253.31 211.506C253.551 211.266 253.911 211.266 254.151 211.506C254.392 211.747 254.392 212.107 254.151 212.348C253.25 213.249 252.349 214.06 251.447 214.811C251.297 214.871 251.147 214.931 251.027 214.931C250.847 214.931 250.666 214.841 250.576 214.721ZM228.374 213.67C227.773 212.979 227.172 212.228 226.601 211.446C226.451 211.236 226.271 210.996 226.12 210.785C225.94 210.515 226 210.155 226.271 209.944C226.541 209.764 226.932 209.824 227.112 210.094C227.262 210.305 227.412 210.515 227.593 210.755C228.133 211.537 228.704 212.258 229.305 212.889C229.515 213.129 229.485 213.519 229.245 213.73C229.125 213.82 228.975 213.88 228.824 213.88C228.644 213.88 228.494 213.82 228.374 213.67ZM115.379 211.567C115.228 211.266 115.349 210.906 115.649 210.755C116.701 210.215 117.782 209.674 118.864 209.133C119.164 208.983 119.525 209.103 119.675 209.403C119.825 209.704 119.705 210.064 119.405 210.215C118.323 210.755 117.241 211.326 116.19 211.867C116.1 211.867 116.01 211.897 115.919 211.897C115.709 211.897 115.499 211.777 115.379 211.567ZM255.774 209.704C255.533 209.494 255.503 209.103 255.714 208.863C256.465 207.961 257.216 207.03 257.937 206.069C258.147 205.798 258.508 205.738 258.778 205.948C259.049 206.159 259.109 206.519 258.898 206.79C258.177 207.781 257.396 208.742 256.615 209.644C256.495 209.764 256.315 209.854 256.164 209.854C256.014 209.854 255.894 209.794 255.774 209.704ZM34.2 209.133C33.5991 208.081 33.0283 207 32.5476 205.858C32.4274 205.558 32.5476 205.197 32.848 205.077C33.1485 204.957 33.509 205.077 33.6292 205.378C34.1099 206.459 34.6507 207.511 35.2215 208.532C35.3717 208.833 35.2816 209.193 35.0112 209.343C34.9211 209.403 34.8009 209.433 34.7108 209.433C34.5005 209.433 34.2901 209.313 34.2 209.133ZM121.808 208.232C121.658 207.931 121.748 207.571 122.048 207.421C123.1 206.85 124.151 206.279 125.203 205.708C125.503 205.558 125.864 205.648 126.014 205.948C126.164 206.249 126.074 206.609 125.774 206.76C124.722 207.33 123.671 207.931 122.619 208.472C122.529 208.562 122.439 208.562 122.349 208.562C122.139 208.562 121.928 208.442 121.808 208.232ZM224.108 207.781C223.417 206.699 222.756 205.648 222.215 204.656C222.065 204.356 222.155 203.996 222.455 203.845C222.756 203.695 223.116 203.785 223.266 204.086C223.807 205.047 224.408 206.069 225.099 207.15C225.279 207.421 225.189 207.811 224.919 207.991C224.829 208.021 224.708 208.051 224.618 208.051C224.408 208.051 224.228 207.961 224.108 207.781ZM128.117 204.777C127.967 204.476 128.057 204.116 128.328 203.965C129.349 203.365 130.401 202.764 131.452 202.163C131.753 201.983 132.113 202.103 132.263 202.373C132.444 202.674 132.323 203.034 132.053 203.184C131.001 203.815 129.95 204.416 128.928 205.017C128.838 205.047 128.748 205.077 128.628 205.077C128.418 205.077 128.207 204.957 128.117 204.777ZM31.2257 202.433C30.8351 201.292 30.5046 200.12 30.2342 198.918C30.1741 198.588 30.3544 198.257 30.6849 198.197C31.0154 198.137 31.3459 198.317 31.406 198.648C31.6764 199.819 32.0068 200.961 32.3673 202.073C32.4575 202.373 32.3073 202.734 31.9768 202.824C31.9167 202.854 31.8566 202.854 31.7965 202.854C31.5562 202.854 31.3158 202.704 31.2257 202.433ZM220.592 201.382C220.052 200.12 219.691 198.978 219.421 197.867C219.361 197.536 219.541 197.236 219.871 197.145C220.202 197.085 220.502 197.266 220.592 197.596C220.833 198.648 221.193 199.729 221.704 200.901C221.824 201.201 221.704 201.562 221.373 201.682C221.313 201.712 221.223 201.742 221.133 201.742C220.893 201.742 220.683 201.592 220.592 201.382ZM134.336 201.111C134.156 200.841 134.246 200.45 134.547 200.27C135.568 199.639 136.59 199.008 137.611 198.377C137.881 198.197 138.272 198.287 138.452 198.558C138.633 198.828 138.543 199.219 138.272 199.399C137.251 200.03 136.229 200.691 135.208 201.292C135.057 201.382 134.967 201.412 134.847 201.412C134.637 201.412 134.457 201.322 134.336 201.111ZM140.465 197.296C140.285 197.025 140.375 196.635 140.646 196.454C141.667 195.794 142.658 195.133 143.65 194.472C143.92 194.291 144.311 194.351 144.491 194.622C144.671 194.892 144.611 195.283 144.341 195.463C143.35 196.124 142.328 196.785 141.337 197.446C141.186 197.536 141.066 197.566 140.976 197.566C140.766 197.566 140.585 197.476 140.465 197.296ZM29.5733 195.313C29.393 194.141 29.2728 192.909 29.2127 191.678C29.1827 191.347 29.4531 191.047 29.7836 191.047C30.1141 191.017 30.4145 191.287 30.4145 191.617C30.4746 192.819 30.5948 193.991 30.775 195.163C30.8351 195.493 30.5948 195.794 30.2643 195.854C30.2342 195.824 30.2042 195.824 30.1742 195.824C29.8737 195.824 29.6334 195.613 29.5733 195.313ZM219.631 194.742C219.3 194.712 219.03 194.442 219.06 194.111C219.12 192.879 219.361 191.678 219.811 190.416C219.931 190.115 220.262 189.935 220.592 190.055C220.893 190.175 221.073 190.506 220.953 190.836C220.532 191.978 220.322 193.06 220.262 194.171C220.232 194.502 219.991 194.742 219.661 194.742H219.631ZM146.474 193.27C146.294 192.999 146.354 192.609 146.624 192.429C147.616 191.738 148.607 191.047 149.569 190.356C149.839 190.175 150.2 190.235 150.41 190.506C150.59 190.776 150.53 191.137 150.26 191.347C149.298 192.038 148.307 192.759 147.315 193.42C147.195 193.51 147.075 193.54 146.955 193.54C146.775 193.54 146.564 193.45 146.474 193.27ZM152.333 189.094C152.122 188.823 152.182 188.463 152.453 188.253C153.414 187.531 154.376 186.81 155.307 186.089C155.577 185.879 155.938 185.939 156.148 186.21C156.359 186.48 156.298 186.84 156.028 187.051C155.097 187.772 154.105 188.523 153.144 189.244C153.054 189.274 152.934 189.334 152.813 189.334C152.633 189.334 152.453 189.244 152.333 189.094ZM29.1226 188.042C29.1527 186.84 29.1827 185.639 29.3029 184.407C29.3329 184.076 29.6033 183.836 29.9638 183.866C30.2943 183.896 30.5347 184.197 30.5046 184.527C30.4145 185.729 30.3544 186.931 30.3244 188.072C30.3244 188.373 30.054 188.643 29.7235 188.643C29.393 188.643 29.1226 188.373 29.1226 188.042ZM221.644 187.892C221.343 187.712 221.253 187.351 221.434 187.081C221.944 186.21 222.575 185.218 223.416 184.016C223.597 183.746 223.987 183.686 224.258 183.866C224.528 184.046 224.588 184.437 224.408 184.707C223.597 185.909 222.966 186.84 222.485 187.682C222.365 187.892 222.155 187.982 221.944 187.982C221.854 187.982 221.734 187.952 221.644 187.892ZM158.041 184.677C157.831 184.407 157.861 184.046 158.131 183.836C159.062 183.085 160.024 182.304 160.925 181.553C161.196 181.342 161.556 181.372 161.766 181.643C161.977 181.883 161.947 182.274 161.676 182.484C160.775 183.235 159.814 184.016 158.882 184.767C158.792 184.858 158.672 184.918 158.522 184.918C158.341 184.918 158.161 184.827 158.041 184.677ZM225.61 181.913C225.339 181.733 225.279 181.342 225.459 181.072C226.09 180.171 226.781 179.179 227.502 178.128C227.683 177.857 228.073 177.797 228.344 177.977C228.614 178.158 228.674 178.548 228.494 178.819C227.773 179.9 227.052 180.892 226.421 181.793C226.361 181.943 226.181 182.033 225.97 182.033C225.85 182.033 225.73 182.003 225.61 181.913ZM30.2342 181.463C29.9038 181.402 29.6935 181.102 29.7235 180.772C29.9038 179.6 30.1141 178.398 30.3544 177.196C30.4145 176.866 30.745 176.656 31.0755 176.716C31.406 176.776 31.6163 177.106 31.5562 177.437C31.3158 178.608 31.1055 179.78 30.9253 180.952C30.8652 181.252 30.5948 181.463 30.3244 181.463C30.2943 181.463 30.2643 181.463 30.2342 181.463ZM163.629 180.081C163.419 179.84 163.449 179.45 163.689 179.239C164.591 178.458 165.492 177.647 166.363 176.836C166.604 176.626 166.994 176.626 167.204 176.866C167.415 177.106 167.415 177.497 167.174 177.707C166.303 178.518 165.402 179.329 164.47 180.111C164.35 180.231 164.2 180.291 164.08 180.291C163.9 180.291 163.749 180.231 163.629 180.081ZM229.696 175.965C229.425 175.784 229.335 175.424 229.515 175.123C230.176 174.102 230.777 173.08 231.348 172.059C231.498 171.758 231.889 171.668 232.159 171.849C232.46 171.999 232.55 172.389 232.37 172.66C231.769 173.711 231.168 174.733 230.507 175.754C230.417 175.965 230.236 176.055 230.026 176.055C229.906 176.055 229.816 176.025 229.696 175.965ZM168.977 175.243C168.737 175.003 168.767 174.613 169.007 174.402C169.878 173.561 170.75 172.72 171.561 171.879C171.801 171.638 172.162 171.638 172.402 171.879C172.642 172.119 172.642 172.479 172.402 172.72C171.591 173.561 170.72 174.432 169.818 175.274C169.698 175.364 169.548 175.424 169.398 175.424C169.247 175.424 169.097 175.364 168.977 175.243ZM31.6162 174.372C31.2858 174.282 31.1055 173.952 31.1956 173.651C31.4961 172.51 31.8566 171.338 32.2171 170.166C32.3073 169.836 32.6678 169.685 32.9682 169.776C33.2987 169.866 33.4489 170.226 33.3588 170.527C32.9983 171.668 32.6377 172.81 32.3373 173.952C32.2772 174.222 32.0369 174.402 31.7665 174.402C31.7064 174.402 31.6763 174.402 31.6162 174.372ZM174.024 170.106C173.784 169.896 173.754 169.505 173.994 169.265C174.805 168.363 175.617 167.462 176.368 166.591C176.578 166.351 176.969 166.32 177.209 166.531C177.449 166.741 177.479 167.132 177.269 167.372C176.518 168.273 175.707 169.175 174.866 170.106C174.775 170.196 174.595 170.256 174.445 170.256C174.295 170.256 174.145 170.196 174.024 170.106ZM233.331 169.745C233.031 169.595 232.91 169.235 233.061 168.934C233.211 168.634 233.361 168.333 233.541 168.003C233.902 167.282 234.262 166.501 234.593 165.72C234.713 165.419 235.074 165.269 235.374 165.389C235.674 165.509 235.825 165.87 235.704 166.17C235.374 166.981 235.013 167.793 234.623 168.544C234.473 168.874 234.292 169.175 234.142 169.475C234.022 169.685 233.812 169.806 233.601 169.806C233.511 169.806 233.421 169.776 233.331 169.745ZM33.7794 167.522C33.479 167.402 33.2987 167.072 33.4189 166.741C33.8395 165.629 34.2902 164.488 34.7709 163.376C34.891 163.076 35.2516 162.926 35.552 163.076C35.8524 163.196 36.0026 163.556 35.8524 163.857C35.3717 164.968 34.9211 166.08 34.5005 167.162C34.4404 167.402 34.2301 167.552 33.9897 167.552C33.9296 167.552 33.8395 167.552 33.7794 167.522ZM178.741 164.638C178.471 164.428 178.441 164.067 178.621 163.797C179.372 162.835 180.093 161.844 180.724 160.913C180.904 160.642 181.295 160.582 181.565 160.762C181.836 160.943 181.896 161.333 181.716 161.604C181.055 162.565 180.334 163.556 179.552 164.548C179.462 164.668 179.282 164.758 179.102 164.758C178.982 164.758 178.831 164.728 178.741 164.638ZM236.215 163.136C235.885 163.046 235.734 162.685 235.825 162.385C236.185 161.273 236.516 160.131 236.786 158.96C236.876 158.629 237.177 158.449 237.507 158.509C237.838 158.599 238.018 158.9 237.958 159.23C237.657 160.432 237.327 161.604 236.966 162.745C236.876 163.016 236.636 163.166 236.395 163.166C236.335 163.166 236.275 163.166 236.215 163.136ZM36.5735 160.883C36.2731 160.732 36.1529 160.372 36.3031 160.071C36.5735 159.501 36.8739 158.93 37.1443 158.389C37.4147 157.878 37.6851 157.367 37.9856 156.827C38.1358 156.526 38.5264 156.436 38.7967 156.616C39.0972 156.767 39.1873 157.157 39.007 157.427C38.7066 157.938 38.4362 158.449 38.1959 158.93C37.9255 159.47 37.625 160.041 37.3546 160.582C37.2645 160.792 37.0542 160.943 36.8439 160.943C36.7538 160.943 36.6636 160.913 36.5735 160.883ZM182.887 158.719C182.617 158.539 182.497 158.179 182.677 157.908C183.308 156.857 183.879 155.805 184.359 154.784C184.51 154.483 184.87 154.363 185.171 154.513C185.471 154.663 185.591 155.024 185.441 155.324C184.93 156.376 184.359 157.458 183.698 158.539C183.578 158.689 183.398 158.809 183.188 158.809C183.098 158.809 182.977 158.779 182.887 158.719ZM238.018 156.166C237.687 156.106 237.477 155.805 237.537 155.475C237.747 154.303 237.898 153.131 238.018 151.929C238.048 151.599 238.348 151.359 238.679 151.389C239.009 151.419 239.25 151.719 239.22 152.05C239.099 153.251 238.949 154.483 238.739 155.655C238.649 155.955 238.378 156.166 238.108 156.166C238.078 156.166 238.048 156.166 238.018 156.166ZM40.0886 154.603C39.8183 154.423 39.7281 154.033 39.9384 153.762C40.5994 152.801 41.3204 151.809 42.0715 150.818C42.2818 150.547 42.6424 150.517 42.9127 150.698C43.1831 150.908 43.2132 151.268 43.033 151.539C42.2819 152.5 41.5908 153.492 40.9299 154.423C40.8097 154.603 40.5994 154.693 40.4191 154.693C40.2989 154.693 40.1788 154.663 40.0886 154.603ZM186.102 152.29C185.802 152.17 185.621 151.839 185.741 151.509C186.072 150.577 186.342 149.646 186.553 148.745C186.613 148.534 186.643 148.324 186.703 148.114C186.793 147.783 187.093 147.603 187.424 147.663C187.754 147.753 187.935 148.054 187.875 148.384C187.814 148.595 187.784 148.805 187.724 149.015C187.514 149.947 187.214 150.938 186.853 151.929C186.793 152.17 186.553 152.32 186.312 152.32C186.252 152.32 186.162 152.32 186.102 152.29ZM238.198 148.384C238.198 148.054 238.198 147.723 238.198 147.393C238.198 146.522 238.168 145.68 238.138 144.839C238.108 144.509 238.378 144.238 238.709 144.208C239.039 144.178 239.31 144.449 239.34 144.779C239.4 145.65 239.43 146.522 239.43 147.393C239.43 147.723 239.43 148.084 239.43 148.414C239.4 148.745 239.129 148.985 238.799 148.985C238.468 148.985 238.198 148.715 238.198 148.384ZM44.4149 148.805C44.1746 148.595 44.1446 148.204 44.3549 147.964C45.106 147.062 45.9171 146.161 46.7584 145.23C46.9687 144.989 47.3593 144.959 47.5996 145.2C47.84 145.41 47.87 145.8 47.6296 146.041C46.7884 146.942 46.0073 147.843 45.2562 148.715C45.136 148.895 44.9858 148.955 44.8055 148.955C44.6553 148.955 44.5351 148.895 44.4149 148.805ZM188.025 145.35C187.694 145.26 187.514 144.929 187.604 144.599C187.935 143.397 188.295 142.225 188.656 141.114C188.746 140.813 189.106 140.633 189.407 140.723C189.707 140.813 189.888 141.174 189.797 141.474C189.437 142.556 189.076 143.727 188.746 144.899C188.686 145.2 188.445 145.38 188.175 145.38C188.115 145.38 188.055 145.38 188.025 145.35ZM49.252 143.457C49.0117 143.217 49.0117 142.856 49.252 142.616C50.0632 141.775 50.9345 140.933 51.8058 140.062C52.0461 139.822 52.4367 139.822 52.647 140.062C52.8874 140.302 52.8874 140.693 52.647 140.903C51.7757 141.775 50.9045 142.616 50.0933 143.457C49.9731 143.577 49.8228 143.637 49.6726 143.637C49.5224 143.637 49.3722 143.577 49.252 143.457ZM237.747 141.294C237.567 140.092 237.327 138.95 237.056 137.839C236.966 137.508 237.177 137.178 237.477 137.118C237.808 137.028 238.138 137.238 238.198 137.538C238.499 138.68 238.739 139.912 238.919 141.144C238.979 141.474 238.739 141.775 238.408 141.835C238.408 141.805 238.378 141.805 238.348 141.805C238.048 141.805 237.807 141.594 237.747 141.294ZM54.3895 138.41C54.1491 138.169 54.1792 137.779 54.4196 137.568C55.2608 136.787 56.1621 135.946 57.0935 135.105C57.3338 134.895 57.7244 134.895 57.9347 135.135C58.145 135.375 58.145 135.766 57.9047 135.976C57.0034 136.817 56.102 137.629 55.2608 138.41C55.1106 138.53 54.9603 138.59 54.8402 138.59C54.6899 138.59 54.5097 138.53 54.3895 138.41ZM190.248 138.5C189.948 138.38 189.797 138.019 189.918 137.719C190.368 136.547 190.879 135.435 191.36 134.384C191.51 134.083 191.87 133.963 192.171 134.113C192.471 134.264 192.591 134.624 192.441 134.925C191.961 135.946 191.48 137.058 191.029 138.199C190.939 138.38 190.699 138.53 190.458 138.53C190.398 138.53 190.308 138.53 190.248 138.5ZM235.975 134.444C235.554 133.332 235.043 132.251 234.473 131.259C234.322 130.959 234.413 130.598 234.713 130.448C235.013 130.298 235.374 130.388 235.524 130.688C236.095 131.74 236.636 132.852 237.086 134.023C237.207 134.324 237.056 134.684 236.756 134.804C236.696 134.834 236.636 134.834 236.546 134.834C236.305 134.834 236.065 134.684 235.975 134.444ZM59.7073 133.513C59.497 133.272 59.497 132.882 59.7674 132.671C60.6687 131.89 61.57 131.079 62.5014 130.298C62.7417 130.088 63.1323 130.118 63.3426 130.358C63.5529 130.598 63.5229 130.989 63.2825 131.199C62.3812 131.98 61.4498 132.791 60.5786 133.573C60.4584 133.663 60.3082 133.723 60.158 133.723C59.9777 133.723 59.8275 133.663 59.7073 133.513ZM193.282 131.95C192.982 131.77 192.892 131.409 193.072 131.139C193.703 130.057 194.394 129.036 195.085 128.075C195.295 127.804 195.656 127.744 195.926 127.954C196.197 128.165 196.257 128.525 196.046 128.796C195.385 129.697 194.725 130.688 194.094 131.74C194.003 131.92 193.793 132.04 193.583 132.04C193.493 132.04 193.373 132.01 193.282 131.95ZM65.1753 128.796C64.965 128.555 64.995 128.165 65.2354 127.954C66.1367 127.173 67.068 126.392 67.9994 125.611C68.2397 125.401 68.6303 125.431 68.8406 125.671C69.0509 125.911 69.0209 126.302 68.7806 126.512C67.8492 127.293 66.9479 128.075 66.0165 128.856C65.8964 128.946 65.7762 129.006 65.626 129.006C65.4457 129.006 65.2955 128.946 65.1753 128.796ZM232.58 128.345C231.859 127.414 231.078 126.542 230.206 125.761C229.966 125.551 229.936 125.16 230.176 124.92C230.387 124.68 230.777 124.65 231.018 124.89C231.919 125.731 232.76 126.632 233.511 127.624C233.722 127.894 233.661 128.255 233.391 128.465C233.301 128.525 233.181 128.585 233.061 128.585C232.88 128.585 232.7 128.495 232.58 128.345ZM197.489 126.092C197.248 125.851 197.248 125.491 197.489 125.25C198.36 124.349 199.291 123.538 200.253 122.817C200.523 122.607 200.884 122.667 201.094 122.937C201.304 123.207 201.244 123.568 200.974 123.778C200.072 124.469 199.171 125.25 198.36 126.092C198.21 126.212 198.059 126.272 197.909 126.272C197.759 126.272 197.609 126.212 197.489 126.092ZM70.7034 124.139C70.493 123.898 70.5231 123.508 70.7935 123.298C71.7249 122.516 72.6562 121.765 73.5575 120.984C73.7979 120.774 74.1885 120.804 74.3988 121.074C74.6091 121.315 74.579 121.705 74.3086 121.916C73.3773 122.697 72.4459 123.448 71.5446 124.229C71.4244 124.289 71.2742 124.349 71.154 124.349C70.9737 124.349 70.8235 124.289 70.7034 124.139ZM227.442 123.628C226.481 122.997 225.429 122.456 224.348 121.976C224.047 121.855 223.897 121.495 224.047 121.195C224.168 120.894 224.528 120.744 224.829 120.894C225.97 121.405 227.052 121.976 228.073 122.637C228.344 122.817 228.434 123.177 228.254 123.478C228.163 123.628 227.953 123.718 227.773 123.718C227.653 123.718 227.563 123.688 227.442 123.628ZM203.107 121.645C202.957 121.345 203.077 120.984 203.377 120.834C204.459 120.263 205.63 119.813 206.802 119.452C207.133 119.362 207.463 119.542 207.553 119.843C207.643 120.173 207.463 120.504 207.163 120.594C206.051 120.924 204.97 121.375 203.918 121.886C203.828 121.976 203.738 121.976 203.648 121.976C203.437 121.976 203.227 121.855 203.107 121.645ZM221.043 120.804C220.172 120.564 219.27 120.353 218.369 120.203C218.099 120.143 217.858 120.113 217.618 120.083C217.288 120.023 217.077 119.722 217.107 119.392C217.167 119.061 217.468 118.851 217.798 118.881C218.069 118.911 218.339 118.971 218.579 119.001C219.541 119.182 220.472 119.392 221.373 119.632C221.704 119.722 221.884 120.053 221.794 120.383C221.704 120.654 221.464 120.834 221.193 120.834C221.133 120.834 221.073 120.834 221.043 120.804ZM209.897 119.362C209.867 119.031 210.077 118.731 210.407 118.701C211.579 118.551 212.811 118.491 214.103 118.521C214.433 118.521 214.704 118.791 214.674 119.152C214.674 119.482 214.373 119.752 214.043 119.722C212.841 119.692 211.669 119.752 210.528 119.873C210.558 119.903 210.528 119.903 210.498 119.903C210.197 119.903 209.927 119.692 209.897 119.362ZM76.2315 119.512C76.0212 119.272 76.0511 118.881 76.3215 118.671C77.2529 117.89 78.1543 117.139 79.0856 116.357C79.326 116.147 79.7165 116.177 79.9268 116.418C80.1371 116.658 80.1071 117.048 79.8667 117.259C78.9354 118.04 78.0341 118.791 77.1027 119.572C76.9525 119.662 76.8323 119.722 76.6821 119.722C76.5019 119.722 76.3516 119.662 76.2315 119.512ZM81.7595 114.885C81.5492 114.645 81.5792 114.254 81.8196 114.044C82.751 113.263 83.6523 112.482 84.5536 111.701C84.794 111.49 85.1846 111.52 85.3949 111.761C85.6052 112.001 85.5751 112.392 85.3347 112.602C84.4334 113.383 83.502 114.164 82.5707 114.945C82.4806 115.036 82.3604 115.096 82.2102 115.096C82.0299 115.096 81.8797 115.036 81.7595 114.885ZM87.2275 110.168C87.0172 109.928 87.0472 109.537 87.2876 109.327C88.249 108.486 89.1202 107.705 89.9915 106.924C90.2319 106.713 90.6224 106.713 90.8328 106.984C91.0431 107.224 91.0431 107.615 90.7727 107.825C89.9315 108.606 89.0301 109.387 88.0687 110.229C87.9786 110.319 87.8284 110.379 87.6782 110.379C87.4979 110.379 87.3477 110.319 87.2275 110.168ZM92.6054 105.361C92.365 105.121 92.395 104.73 92.6354 104.52C93.5367 103.679 94.408 102.838 95.2492 102.057C95.4896 101.816 95.8801 101.846 96.0904 102.057C96.3308 102.297 96.3007 102.687 96.0904 102.898C95.2492 103.709 94.3779 104.55 93.4466 105.391C93.3564 105.512 93.2063 105.542 93.0561 105.542C92.9058 105.542 92.7256 105.482 92.6054 105.361ZM97.8029 100.344C97.5626 100.104 97.5626 99.7432 97.8029 99.5028C98.6742 98.6316 99.5155 97.7302 100.267 96.889C100.477 96.6487 100.867 96.6186 101.108 96.859C101.348 97.0693 101.378 97.4599 101.138 97.7002C100.357 98.5414 99.5154 99.4427 98.6442 100.344C98.554 100.464 98.4039 100.524 98.2236 100.524C98.0734 100.524 97.9231 100.464 97.8029 100.344ZM102.73 95.0563C102.49 94.846 102.43 94.4555 102.67 94.2151C103.481 93.2537 104.232 92.3224 104.893 91.421C105.104 91.1506 105.464 91.0905 105.735 91.3008C106.005 91.5112 106.065 91.8717 105.855 92.1421C105.164 93.0734 104.383 94.0348 103.571 94.9963C103.451 95.1465 103.271 95.2066 103.121 95.2066C102.971 95.2066 102.85 95.1465 102.73 95.0563ZM107.117 89.348C106.846 89.1677 106.756 88.8072 106.936 88.5068C107.597 87.4552 108.198 86.4337 108.709 85.4423C108.859 85.1419 109.22 85.0217 109.52 85.1719C109.82 85.3221 109.941 85.6826 109.79 85.9831C109.25 87.0046 108.649 88.0862 107.958 89.1377C107.838 89.348 107.627 89.4381 107.447 89.4381C107.327 89.4381 107.237 89.4081 107.117 89.348ZM110.482 83.0087C110.181 82.8886 110.001 82.5581 110.121 82.2276C110.542 81.0859 110.812 79.9443 110.992 78.8627C111.052 78.5322 111.353 78.3219 111.683 78.3519C112.014 78.412 112.224 78.7125 112.194 79.0429C112.014 80.2147 111.713 81.4164 111.263 82.6182C111.172 82.8886 110.932 83.0388 110.692 83.0388C110.632 83.0388 110.572 83.0388 110.482 83.0087ZM45.0759 77.2704C45.0759 76.9399 45.3463 76.6695 45.6768 76.6695C46.7884 76.6394 47.9602 76.5493 49.192 76.369C49.5224 76.309 49.8228 76.5493 49.8829 76.8798C49.943 77.2103 49.7027 77.5107 49.3722 77.5708C48.0503 77.7511 46.8184 77.8412 45.6768 77.8712C45.3463 77.8712 45.0759 77.6008 45.0759 77.2704ZM41.9814 77.6309C40.7196 77.4206 39.4877 77.0901 38.3761 76.6394C38.0757 76.5193 37.9255 76.1587 38.0456 75.8583C38.1658 75.5579 38.5263 75.4076 38.8268 75.5278C39.8483 75.9484 40.9899 76.2489 42.1616 76.4592C42.4921 76.5193 42.7024 76.8197 42.6724 77.1502C42.6123 77.4206 42.3719 77.6309 42.0715 77.6309C42.0415 77.6309 42.0115 77.6309 41.9814 77.6309ZM52.2264 76.3991C52.1362 76.0686 52.3465 75.7381 52.677 75.678C53.7586 75.4076 54.9303 75.1072 56.1021 74.7166C56.4325 74.6265 56.763 74.8068 56.8532 75.1072C56.9433 75.4377 56.763 75.7682 56.4626 75.8583C55.2308 76.2489 54.0591 76.5493 52.9475 76.8197C52.8874 76.8497 52.8273 76.8497 52.7972 76.8497C52.5268 76.8497 52.2864 76.6695 52.2264 76.3991ZM111.112 75.4377C111.022 74.296 110.752 73.1543 110.361 72.0728C110.241 71.7723 110.421 71.4118 110.722 71.2916C111.022 71.1714 111.383 71.3517 111.503 71.6521C111.924 72.8239 112.194 74.0557 112.314 75.3175C112.344 75.648 112.104 75.9484 111.773 75.9785C111.743 75.9785 111.743 75.9785 111.713 75.9785C111.413 75.9785 111.142 75.7381 111.112 75.4377ZM35.1314 74.7767C34.3803 74.2059 33.6893 73.575 33.0283 72.8539C32.818 72.6436 32.6378 72.4333 32.4575 72.1929C32.2472 71.9526 32.2772 71.562 32.5176 71.3517C32.7579 71.1414 33.1485 71.1714 33.3588 71.4118C33.5391 71.6221 33.7193 71.8324 33.8996 72.0427C34.5005 72.7037 35.1614 73.3046 35.8524 73.8454C36.1228 74.0557 36.1529 74.4162 35.9726 74.6866C35.8524 74.8068 35.6722 74.8969 35.4919 74.8969C35.3717 74.8969 35.2516 74.8668 35.1314 74.7767ZM59.1064 74.3861C58.9863 74.0857 59.1665 73.7252 59.467 73.605C60.5185 73.2144 61.6301 72.8239 62.8319 72.3432C63.1323 72.223 63.4929 72.3732 63.613 72.6736C63.7332 72.9741 63.583 73.3346 63.2825 73.4548C62.0808 73.9355 60.9691 74.3561 59.8875 74.7166C59.8275 74.7467 59.7674 74.7767 59.6773 74.7767C59.4369 74.7767 59.1966 74.6265 59.1064 74.3861ZM65.8363 71.8024C65.7161 71.5019 65.8663 71.1414 66.1668 71.0212C67.2784 70.5706 68.39 70.0899 69.5016 69.6392C69.802 69.519 70.1626 69.6693 70.2828 69.9697C70.4029 70.2701 70.2527 70.6307 69.9523 70.7508C68.8406 71.2315 67.729 71.6822 66.6174 72.1329C66.5573 72.1329 66.4972 72.1629 66.4071 72.1629C66.1667 72.1629 65.9564 72.0127 65.8363 71.8024ZM30.2042 69.2787C29.5132 68.2271 28.8822 67.1756 28.3415 66.094C28.1912 65.7936 28.3114 65.4331 28.6119 65.2828C28.9123 65.1326 29.2728 65.2528 29.4231 65.5532C29.9338 66.5747 30.5347 67.5962 31.1956 68.5877C31.3759 68.8581 31.3158 69.2486 31.0454 69.4289C30.9252 69.519 30.8351 69.5491 30.7149 69.5491C30.5347 69.5491 30.3244 69.4589 30.2042 69.2787ZM72.5361 69.0083C72.4159 68.7079 72.5661 68.3473 72.8665 68.2271C73.9781 67.7464 75.0898 67.2958 76.2014 66.8451C76.5018 66.7249 76.8624 66.8752 76.9826 67.1756C77.1027 67.476 76.9525 67.8366 76.6521 67.9568C75.5404 68.4074 74.4288 68.8581 73.3172 69.3388C73.227 69.3388 73.137 69.3688 73.0769 69.3688C72.8365 69.3688 72.6262 69.2186 72.5361 69.0083ZM108.799 69.0083C108.138 67.9868 107.387 67.0855 106.606 66.3344C106.365 66.094 106.365 65.7335 106.606 65.4931C106.846 65.2528 107.207 65.2528 107.447 65.4931C108.288 66.3344 109.099 67.2958 109.82 68.3774C110.001 68.6478 109.911 69.0383 109.64 69.2186C109.52 69.2486 109.43 69.2787 109.31 69.2787C109.099 69.2787 108.919 69.1886 108.799 69.0083ZM79.1757 66.2743C79.0555 65.9739 79.2058 65.6133 79.5062 65.4931C80.738 65.0124 81.8497 64.6219 82.9012 64.2313C83.2016 64.1111 83.5622 64.2914 83.6523 64.5918C83.7725 64.8923 83.5922 65.2528 83.2918 65.3429C82.2402 65.7035 81.1286 66.1241 79.9268 66.5747C79.8968 66.6348 79.8367 66.6649 79.7466 66.6649C79.5062 66.6649 79.2658 66.5146 79.1757 66.2743ZM103.842 64.2914C102.85 63.7506 101.769 63.33 100.627 63.0596C100.297 62.9695 100.116 62.669 100.176 62.3385C100.267 62.0081 100.567 61.8278 100.897 61.8879C102.159 62.1883 103.331 62.639 104.413 63.2399C104.713 63.3901 104.803 63.7506 104.653 64.051C104.563 64.2313 104.353 64.3515 104.142 64.3515C104.052 64.3515 103.932 64.3214 103.842 64.2914ZM85.9957 63.8708C85.9056 63.5403 86.0858 63.2098 86.4163 63.1197C87.6481 62.7592 88.8499 62.4587 89.9615 62.1883C90.292 62.1282 90.5924 62.3085 90.6825 62.639C90.7426 62.9695 90.5624 63.2699 90.2319 63.36C89.1503 63.6004 87.9786 63.9008 86.7768 64.2614C86.6867 64.2914 86.6266 64.2914 86.5665 64.2914C86.2961 64.2914 86.0558 64.1111 85.9957 63.8708ZM26.9594 62.669C26.5989 61.4973 26.3285 60.2655 26.1483 59.0638C26.0882 58.7333 26.3285 58.4328 26.659 58.3727C26.9895 58.3127 27.2899 58.553 27.35 58.8835C27.5002 60.0252 27.7706 61.1668 28.1312 62.3085C28.2213 62.639 28.041 62.9695 27.7406 63.0596C27.6504 63.0896 27.5904 63.0896 27.5303 63.0896C27.2599 63.0896 27.0496 62.9394 26.9594 62.669ZM93.026 62.2484C92.9959 61.9179 93.2363 61.6175 93.5668 61.5874C94.8587 61.4372 96.0905 61.3771 97.2622 61.4072C97.5927 61.4072 97.863 61.7076 97.833 62.0381C97.833 62.3686 97.5325 62.639 97.202 62.6089C96.0904 62.5789 94.9187 62.639 93.6869 62.7892C93.6569 62.7892 93.6269 62.7892 93.6269 62.7892C93.3264 62.7892 93.056 62.5789 93.026 62.2484ZM26.5689 55.9993C26.2084 55.9993 25.968 55.6988 25.968 55.3684C25.9981 54.1666 26.1483 52.9348 26.3586 51.703C26.4187 51.3725 26.7191 51.1622 27.0496 51.2223C27.3801 51.2824 27.5904 51.5828 27.5303 51.9133C27.32 53.085 27.1697 54.2567 27.1397 55.3984C27.1397 55.7289 26.8693 55.9993 26.5689 55.9993C26.5689 55.9993 26.5389 55.9993 26.5689 55.9993ZM27.6805 48.8789C27.3801 48.7887 27.1998 48.4282 27.2899 48.1278C27.6805 46.9861 28.1312 45.8444 28.672 44.7028C28.8222 44.4023 29.1827 44.2822 29.4831 44.4023C29.7836 44.5526 29.9038 44.9131 29.7836 45.2135C29.2728 46.2951 28.8222 47.4067 28.4616 48.4883C28.3415 48.7587 28.1011 48.9089 27.8608 48.9089C27.8007 48.9089 27.7406 48.9089 27.6805 48.8789ZM30.5947 42.2993C30.3244 42.119 30.2042 41.7585 30.3845 41.4881C31.0154 40.4666 31.6764 39.4451 32.4275 38.4536C32.6378 38.1833 32.9983 38.1232 33.2687 38.3335C33.5391 38.5438 33.5992 38.9043 33.3888 39.1747C32.6678 40.1361 32.0068 41.1276 31.406 42.119C31.3158 42.2993 31.1055 42.3894 30.8952 42.3894C30.775 42.3894 30.6849 42.3594 30.5947 42.2993ZM34.7709 36.4407C34.5305 36.2304 34.5005 35.8398 34.7108 35.5995C36.1829 33.917 37.2345 32.9857 37.2645 32.9556C37.5049 32.7453 37.8954 32.7453 38.1057 33.0157C38.316 33.2561 38.316 33.6466 38.0456 33.8569C38.0456 33.8569 36.9941 34.7883 35.5821 36.4107C35.4919 36.5008 35.3417 36.5909 35.1614 36.5909C35.0112 36.5909 34.891 36.5308 34.7709 36.4407Z" fill="#5DB571"/>
<path d="M248.203 257.804C251.207 271.624 252.108 274.929 252.108 274.929H214.854L194.725 221.15L237.387 223.854C237.387 223.854 245.198 243.984 248.203 257.804Z" fill="#F9D2DD"/>
<path d="M194.725 221.15L199.532 233.769L242.494 237.975C240.211 231.335 237.387 223.854 237.387 223.854L194.725 221.15Z" fill="#F9ACC0"/>
<path d="M85.6654 223.254L77.5536 274.929H217.258L207.043 231.966L240.692 228.962C240.692 228.962 226.271 180.892 197.429 165.269C168.587 149.646 127.126 150.547 101.288 163.166C85.365 170.947 59.5272 198.918 54.7202 223.254H85.6654Z" fill="#3D5CFF"/>
<path d="M85.6654 223.254L77.5536 274.929H217.258L207.043 231.966L240.692 228.962C240.692 228.962 232.881 185.699 197.429 165.269C169.007 148.895 127.517 151.328 101.288 163.166C82.661 171.578 62.2312 192.609 54.7202 223.254H85.6654Z" fill="#3D5CFF"/>
<path fill-rule="evenodd" clip-rule="evenodd" d="M44.7155 134.203C41.3205 135.525 39.608 139.341 40.9299 142.736L47.089 158.749C48.4109 162.144 52.2264 163.856 55.6214 162.535L68.8407 157.427C68.9308 157.397 69.051 157.397 69.1412 157.427L85.1846 163.977C85.6953 164.187 86.2061 164.097 86.6267 163.856C86.6567 163.856 86.6567 163.826 86.6868 163.826H86.7168C87.7383 163.436 88.2491 162.294 87.8585 161.273L84.2532 151.959C84.1631 151.749 84.2833 151.508 84.4936 151.418L92.3651 148.384C95.7601 147.062 97.4725 143.246 96.1506 139.851L89.9916 123.838C88.6997 120.443 84.8541 118.731 81.4592 120.052L44.7155 134.203ZM70.2528 149.165C70.1927 149.195 70.1626 149.195 70.1025 149.195L63.3427 149.435C62.862 149.465 62.4114 149.165 62.2611 148.714L58.085 137.869C57.8446 137.298 58.1451 136.637 58.7159 136.426C58.8361 136.366 58.9563 136.366 59.0765 136.336L65.0552 136.096C65.5058 136.096 65.9264 136.366 66.1067 136.787L70.5532 148.474C70.6433 148.744 70.5232 149.045 70.2528 149.165ZM72.6864 148.174C72.476 148.354 72.1455 148.324 71.9653 148.113C71.9352 148.083 71.9052 148.023 71.8752 147.963L67.3686 136.276C67.2184 135.856 67.3386 135.375 67.669 135.074L72.2357 131.229C72.7164 130.838 73.4074 130.898 73.798 131.379C73.858 131.469 73.9482 131.559 73.9783 131.679L78.1543 142.555C78.3947 143.006 78.2745 143.517 77.884 143.817L72.6864 148.174Z" fill="white"/>
<path d="M246.46 113.353C247.422 113.353 248.353 112.782 248.713 111.851C249.104 110.92 248.864 109.898 248.233 109.207L246.791 112.662C246.701 112.902 246.58 113.113 246.46 113.353Z" fill="white"/>
<path d="M242.074 107.555L241.984 105.512C241.924 104.791 241.473 104.58 240.962 105.091L239.46 106.413L237.537 105.902C236.876 105.752 236.546 106.143 236.816 106.774L237.567 108.696L236.456 110.499C236.095 111.1 236.335 111.52 237.026 111.43L239.039 111.19L240.271 112.842C240.692 113.383 241.142 113.263 241.323 112.572L241.803 110.529L243.696 109.718C244.327 109.417 244.387 108.907 243.786 108.546L242.074 107.555Z" fill="white"/>
<path d="M232.43 107.614C232.49 107.344 232.58 107.074 232.7 106.803L234.173 103.258C233.121 103.138 232.1 103.709 231.679 104.73C231.258 105.782 231.589 106.953 232.43 107.614Z" fill="white"/>
<path fill-rule="evenodd" clip-rule="evenodd" d="M222.966 88.5068C219.511 87.1849 215.635 88.8974 214.283 92.3525L207.253 110.589C205.931 114.044 207.644 117.92 211.099 119.272L220.472 122.877L216.236 133.843C215.906 134.714 216.326 135.676 217.198 136.006L217.678 136.187C218.129 136.487 218.73 136.577 219.271 136.337L236.846 129.156L251.778 134.925C255.233 136.247 259.139 134.534 260.461 131.079L267.491 112.842C268.843 109.417 267.131 105.542 263.676 104.19L222.966 88.5068ZM244.778 115.697C242.855 117.559 240.031 118.31 237.357 117.529L235.975 120.864L238.469 121.916C238.98 122.126 239.22 122.697 239.01 123.208C238.799 123.718 238.228 123.959 237.718 123.748L230.898 120.924C230.387 120.714 230.147 120.143 230.357 119.632C230.567 119.122 231.138 118.881 231.649 119.092L234.142 120.143L235.555 116.778C233.271 115.396 231.919 112.963 231.859 110.379C229.666 109.417 228.614 106.864 229.546 104.61C230.387 102.597 232.58 101.516 234.653 101.997L235.254 100.524C235.555 99.8033 236.396 99.4729 237.117 99.7733L248.594 104.55C249.315 104.851 249.645 105.692 249.345 106.413L248.714 107.945C250.336 109.057 251.027 111.25 250.216 113.173C249.315 115.306 246.941 116.388 244.778 115.697Z" fill="white"/>
<path d="M84.9142 228.001L86.176 228.331L94.7085 196.815L77.0427 223.254H85.6653L84.9142 228.001Z" fill="#224BF4"/>
<path d="M103.091 84.4506C103.692 73.0339 112.705 68.2269 116.31 67.9265C119.915 67.626 122.319 69.1282 122.319 69.1282C122.319 69.1282 123.821 49.9001 136.139 47.1962C148.457 44.4922 154.466 49.2993 157.771 54.1063C161.075 58.9133 160.775 61.6172 160.775 61.6172C160.775 61.6172 165.582 57.7115 173.994 61.0164C182.407 64.3212 180.003 73.6348 180.003 73.6348C180.003 73.6348 186.613 71.8322 189.918 82.648C193.222 93.4638 182.106 111.49 177.9 114.194C173.694 116.898 112.705 106.082 112.705 106.082C112.705 106.082 102.49 95.8673 103.091 84.4506Z" fill="#1F1F39"/>
<path d="M110.001 101.576C103.992 104.28 103.391 112.392 107.898 117.499C112.404 122.607 123.821 121.405 123.821 121.405L120.757 102.898C120.757 102.898 116.01 98.8719 110.001 101.576Z" fill="#F9ACC0"/>
<path d="M181.836 101.576C187.845 104.28 188.445 112.392 183.939 117.499C179.432 122.607 168.016 121.405 168.016 121.405L171.08 102.898C171.08 102.898 175.827 98.8719 181.836 101.576Z" fill="#F9ACC0"/>
<path d="M121.718 117.649C121.718 117.619 121.658 115.606 119.405 112.181C117.121 108.756 112.795 107.584 112.765 107.554C112.524 107.494 112.374 107.254 112.434 107.014C112.494 106.773 112.735 106.623 112.975 106.683C113.155 106.743 117.662 107.975 120.156 111.67C122.619 115.336 122.649 117.529 122.649 117.619C122.619 117.89 122.409 118.1 122.169 118.1C121.928 118.1 121.718 117.89 121.718 117.649Z" fill="#1F1F39"/>
<path d="M171.531 117.138C171.32 117.018 171.23 116.748 171.32 116.537C171.381 116.387 173.183 112.842 175.917 110.108C178.681 107.344 180.574 106.983 180.664 106.983C180.904 106.953 181.145 107.103 181.175 107.344C181.205 107.584 181.055 107.825 180.814 107.855C180.814 107.855 179.102 108.185 176.548 110.739C173.934 113.353 172.132 116.898 172.132 116.928C172.072 117.108 171.891 117.198 171.741 117.198C171.681 117.198 171.591 117.168 171.531 117.138Z" fill="#1F1F39"/>
<path d="M122.619 121.405C125.624 131.92 135.238 137.929 135.238 137.929C135.238 137.929 135.538 145.44 134.336 150.848C133.135 156.256 131.933 158.359 131.933 158.359C131.933 158.359 134.036 162.866 145.152 162.866C157.17 162.866 160.475 158.359 160.475 158.359C160.475 158.359 158.972 153.852 158.372 149.646C157.771 145.44 158.071 138.23 158.071 138.23C158.071 138.23 167.385 137.028 170.99 123.809C174.595 110.589 172.793 98.8722 172.793 98.8722C172.793 98.8722 155.067 101.576 149.058 94.3656C143.049 87.155 137.04 79.9445 128.328 83.5498C119.615 87.155 120.216 96.1682 120.216 96.1682C120.216 96.1682 119.615 110.89 122.619 121.405Z" fill="#F9D2DD"/>
<path fill-rule="evenodd" clip-rule="evenodd" d="M134.228 96.025C132.677 96.921 130.975 96.8785 130.427 95.9301C129.879 94.9817 130.694 93.4865 132.246 92.5905C133.797 91.6945 135.499 91.7369 136.047 92.6853C136.595 93.6337 135.78 95.1289 134.228 96.025Z" fill="#1F1F39"/>
<path fill-rule="evenodd" clip-rule="evenodd" d="M137.341 111.791C135.848 111.791 134.637 110.378 134.637 108.636C134.637 106.894 135.848 105.481 137.341 105.481C138.834 105.481 140.045 106.894 140.045 108.636C140.045 110.378 138.834 111.791 137.341 111.791Z" fill="#1F1F39"/>
<path fill-rule="evenodd" clip-rule="evenodd" d="M157.17 111.791C155.676 111.791 154.466 110.378 154.466 108.636C154.466 106.894 155.676 105.481 157.17 105.481C158.663 105.481 159.874 106.894 159.874 108.636C159.874 110.378 158.663 111.791 157.17 111.791Z" fill="#1F1F39"/>
<path d="M147.556 119.001C150.26 118.701 151.762 116.598 151.762 116.598C151.762 116.598 152.663 120.203 149.058 121.405C145.453 122.606 142.448 119.001 143.349 116.598C143.349 116.598 144.852 119.302 147.556 119.001Z" fill="#F95368"/>
<path d="M145.152 112.992C146.054 114.795 148.457 113.894 148.457 113.894C148.457 113.894 146.054 113.293 146.054 111.49C146.054 109.688 147.255 106.383 147.255 106.383C147.255 106.383 144.251 111.19 145.152 112.992Z" fill="#1F1F39"/>
<path fill-rule="evenodd" clip-rule="evenodd" d="M120.817 110.439C120.817 104.07 126.014 98.8721 132.384 98.8721C138.753 98.8721 143.95 104.07 143.95 110.439C143.95 116.808 138.753 122.006 132.384 122.006C126.014 122.006 120.817 116.808 120.817 110.439ZM121.718 110.439C121.718 116.328 126.495 121.105 132.384 121.105C138.272 121.105 143.049 116.328 143.049 110.439C143.049 104.55 138.272 99.7734 132.384 99.7734C126.495 99.7734 121.718 104.55 121.718 110.439Z" fill="#1F1F39"/>
<path fill-rule="evenodd" clip-rule="evenodd" d="M149.659 110.439C149.659 104.07 154.857 98.8721 161.226 98.8721C167.595 98.8721 172.793 104.07 172.793 110.439C172.793 116.808 167.595 122.006 161.226 122.006C154.857 122.006 149.659 116.808 149.659 110.439ZM150.56 110.439C150.56 116.328 155.337 121.105 161.226 121.105C167.114 121.105 171.891 116.328 171.891 110.439C171.891 104.55 167.114 99.7734 161.226 99.7734C155.337 99.7734 150.56 104.55 150.56 110.439Z" fill="#1F1F39"/>
<path d="M143.41 107.014C143.47 106.984 145.122 106.594 147.195 106.594C149.298 106.594 150.26 107.014 150.32 107.044L149.959 107.856C149.959 107.856 149.088 107.495 147.225 107.495C145.242 107.465 143.62 107.856 143.62 107.886L143.41 107.014Z" fill="#1F1F39"/>
<path d="M134.336 150.848C134.126 151.749 133.946 152.56 133.736 153.311C133.916 153.251 134.096 153.221 134.276 153.161C147.255 149.736 154.256 145.289 157.981 141.864C157.981 139.761 158.041 138.229 158.041 138.229C158.041 138.229 154.436 140.332 145.723 140.032C141.697 139.882 137.341 139.13 135.238 137.929C135.268 139.791 135.328 146.341 134.336 150.848Z" fill="#F9ACC0"/>
<path fill-rule="evenodd" clip-rule="evenodd" d="M162.127 119.602C158.891 119.602 156.268 117.988 156.268 115.997C156.268 114.006 158.891 112.392 162.127 112.392C165.362 112.392 167.985 114.006 167.985 115.997C167.985 117.988 165.362 119.602 162.127 119.602Z" fill="#F9ACC0"/>
<path fill-rule="evenodd" clip-rule="evenodd" d="M131.182 119.603C127.946 119.603 125.323 117.989 125.323 115.998C125.323 114.007 127.946 112.393 131.182 112.393C134.417 112.393 137.04 114.007 137.04 115.998C137.04 117.989 134.417 119.603 131.182 119.603Z" fill="#F9ACC0"/>
<path d="M207.043 231.966L217.077 231.125L194.725 192.909L207.043 231.966Z" fill="#224BF4"/>
<path d="M135.148 138.77C134.937 138.65 134.847 138.379 134.997 138.139C135.118 137.929 135.388 137.838 135.628 137.989C135.658 138.019 139.204 140.032 144.401 140.032C144.642 140.032 144.852 140.242 144.852 140.482C144.852 140.723 144.642 140.933 144.401 140.933C138.933 140.933 135.298 138.86 135.148 138.77Z" fill="#1F1F39"/>
<path fill-rule="evenodd" clip-rule="evenodd" d="M281.551 274.629V275.53H27.3801V274.629H281.551Z" fill="#1F1F39"/>
<path d="M125.323 229.023C127.006 227.58 126.765 224.456 126.044 222.533C125.624 221.452 124.542 219.889 123.671 218.748C122.74 217.546 122.559 215.923 123.37 214.812C124.452 213.34 127.637 213.099 130.13 213.79C131.783 214.241 133.495 215.022 134.667 216.344C137.551 219.709 138.272 222.653 138.272 222.653C138.272 222.653 143.38 219.649 148.187 222.653C150.56 224.125 150.29 227.16 150.29 227.16C150.29 227.16 152.934 227.1 155.097 229.263C157.26 231.426 155.698 234.671 155.698 234.671C155.698 234.671 158.792 237.615 156.719 241.341C155.397 243.684 150.47 249.422 140.796 254.44C126.315 261.951 96.0606 279.977 75.1801 282.14C61.6904 283.522 43.0331 278.835 48.441 253.899C53.8489 228.962 55.952 223.254 55.952 223.254H87.4981L82.661 242.182C82.661 242.182 123.641 230.465 125.323 229.023Z" fill="#F9D2DD"/>
<path d="M64.6646 248.19C64.5745 247.95 64.7247 247.71 64.935 247.62L82.5107 241.761C82.751 241.671 82.9913 241.821 83.0815 242.031C83.1716 242.272 83.0214 242.512 82.8111 242.602L65.2354 248.461C65.1753 248.491 65.1453 248.491 65.0852 248.491C64.9049 248.491 64.7247 248.371 64.6646 248.19Z" fill="#1F1F39"/>
<path d="M141.307 232.657C141.186 232.447 141.247 232.176 141.457 232.026L150.019 226.768C150.23 226.648 150.5 226.708 150.65 226.919C150.77 227.129 150.71 227.399 150.5 227.549L141.938 232.807C141.847 232.837 141.787 232.867 141.697 232.867C141.547 232.867 141.397 232.777 141.307 232.657Z" fill="#1F1F39"/>
<path d="M146.414 240.468C146.294 240.258 146.354 239.988 146.564 239.837L155.127 234.58C155.337 234.46 155.607 234.52 155.758 234.73C155.878 234.94 155.818 235.211 155.607 235.361L147.045 240.619C146.955 240.649 146.895 240.679 146.805 240.679C146.654 240.679 146.504 240.589 146.414 240.468Z" fill="#1F1F39"/>
<path d="M138.272 222.623C138.302 226.739 135.538 230.164 135.538 230.164C140.405 229.803 143.41 225.147 145.062 221.451C141.637 220.85 138.663 222.413 138.272 222.623Z" fill="#F9ACC0"/>
<path d="M87.4681 223.254H55.922C55.922 223.254 55.0808 225.507 53.1279 233.409L86.6269 226.589L87.4681 223.254Z" fill="#F9ACC0"/>
<path d="M146.684 214.781C146.384 214.631 146.264 214.271 146.444 213.97L149.749 207.661C149.899 207.361 150.26 207.24 150.56 207.421C150.861 207.571 150.981 207.931 150.8 208.232L147.496 214.541C147.375 214.721 147.165 214.841 146.955 214.841C146.865 214.841 146.775 214.811 146.684 214.781Z" fill="#EAEAFF"/>
<path d="M113.636 183.746L110.933 173.832C110.842 173.501 111.023 173.171 111.353 173.081C111.684 172.991 112.014 173.171 112.104 173.501L114.808 183.416C114.898 183.746 114.718 184.077 114.388 184.167C114.297 184.197 114.267 184.197 114.207 184.197C113.937 184.197 113.697 184.017 113.636 183.746Z" fill="#EAEAFF"/>
<path d="M126.615 200.09C126.315 199.97 126.164 199.609 126.285 199.309L129.89 189.995C130.01 189.695 130.371 189.544 130.671 189.665C130.972 189.785 131.122 190.145 131.002 190.446L127.396 199.759C127.306 199.97 127.066 200.12 126.825 200.12C126.765 200.12 126.675 200.12 126.615 200.09Z" fill="#EAEAFF"/>
<path d="M103.752 221.721L99.5456 213.609C99.3954 213.309 99.5156 212.948 99.8161 212.798C100.116 212.648 100.477 212.768 100.627 213.068L104.833 221.18C104.984 221.481 104.863 221.841 104.563 221.991C104.473 222.022 104.383 222.052 104.293 222.052C104.082 222.052 103.872 221.931 103.752 221.721Z" fill="#EAEAFF"/>
<path d="M170.569 237.495C170.329 237.255 170.329 236.894 170.569 236.654L175.076 232.147C175.316 231.907 175.677 231.907 175.917 232.147C176.158 232.387 176.158 232.748 175.917 232.988L171.411 237.495C171.29 237.615 171.14 237.675 170.99 237.675C170.84 237.675 170.69 237.615 170.569 237.495Z" fill="#EAEAFF"/>
<path d="M172.913 262.672L168.106 256.663C167.895 256.392 167.926 256.032 168.196 255.822C168.466 255.611 168.827 255.641 169.037 255.912L173.844 261.921C174.055 262.191 174.024 262.551 173.754 262.762C173.664 262.882 173.514 262.912 173.394 262.912C173.213 262.912 173.033 262.822 172.913 262.672Z" fill="#EAEAFF"/>
<path d="M136.98 270.302C136.71 270.122 136.65 269.731 136.83 269.461L141.337 263.152C141.517 262.881 141.908 262.821 142.178 263.001C142.448 263.182 142.508 263.572 142.328 263.843L137.822 270.152C137.701 270.332 137.521 270.422 137.341 270.422C137.221 270.422 137.1 270.392 136.98 270.302Z" fill="#EAEAFF"/>
<path d="M195.716 256.873C195.416 256.753 195.236 256.422 195.356 256.092L198.36 247.679C198.48 247.379 198.811 247.199 199.141 247.319C199.442 247.439 199.622 247.77 199.502 248.1L196.497 256.512C196.407 256.753 196.167 256.903 195.927 256.903C195.866 256.903 195.776 256.903 195.716 256.873Z" fill="#EAEAFF"/>
<path d="M173.995 201.622V191.107C173.995 190.776 174.265 190.506 174.596 190.506C174.926 190.506 175.196 190.776 175.196 191.107V201.622C175.196 201.953 174.926 202.223 174.596 202.223C174.265 202.223 173.995 201.953 173.995 201.622Z" fill="#EAEAFF"/>
<path d="M153.595 177.437L152.093 171.728C152.002 171.398 152.213 171.067 152.513 171.007C152.844 170.917 153.174 171.128 153.234 171.428L154.736 177.136C154.827 177.467 154.616 177.797 154.316 177.857C154.256 177.887 154.226 177.887 154.166 177.887C153.895 177.887 153.655 177.707 153.595 177.437Z" fill="#EAEAFF"/>
<path d="M192.411 177.857C192.111 177.737 191.931 177.407 192.051 177.076L194.154 171.368C194.274 171.067 194.605 170.887 194.935 171.007C195.235 171.128 195.416 171.458 195.296 171.789L193.192 177.497C193.102 177.737 192.862 177.887 192.622 177.887C192.562 177.887 192.471 177.887 192.411 177.857Z" fill="#EAEAFF"/>
<path d="M70.0426 199.549L69.7422 192.94C69.7422 192.609 69.9825 192.339 70.313 192.309C70.6435 192.309 70.9139 192.549 70.9439 192.879L71.2444 199.489C71.2444 199.82 71.004 200.09 70.6435 200.12C70.6735 200.12 70.6435 200.12 70.6435 200.12C70.313 200.12 70.0727 199.88 70.0426 199.549Z" fill="#EAEAFF"/>
<path d="M227.262 198.949L218.64 197.416C218.309 197.356 218.099 197.056 218.159 196.725C218.219 196.395 218.519 196.185 218.85 196.245L227.473 197.777C227.803 197.837 228.013 198.137 227.953 198.468C227.923 198.738 227.653 198.949 227.382 198.949C227.352 198.949 227.322 198.949 227.262 198.949Z" fill="#EAEAFF"/>
<path d="M204.729 226.649C204.699 226.318 204.94 226.018 205.27 225.988L238.799 223.013C239.13 222.983 239.43 223.224 239.46 223.554C239.49 223.885 239.25 224.185 238.919 224.215L205.39 227.159C205.39 227.159 205.36 227.189 205.33 227.189C205.03 227.189 204.759 226.949 204.729 226.649Z" fill="#EAEAFF"/>
<path d="M55.2607 218.506C55.2607 218.176 55.5011 217.906 55.8315 217.876L88.6695 216.794C89 216.794 89.2704 217.034 89.3005 217.365C89.3005 217.695 89.0601 217.966 88.7296 217.996L55.8616 219.077C55.5311 219.077 55.2607 218.807 55.2607 218.506Z" fill="#EAEAFF"/>
<path d="M87.4079 223.074C87.1676 223.014 87.0174 222.773 87.1075 222.533L95.2193 193.39C95.2794 193.15 95.5498 193 95.7601 193.09C96.0005 193.15 96.1507 193.39 96.0606 193.631L87.9487 222.773C87.9187 222.954 87.7384 223.104 87.5281 223.104C87.498 223.104 87.438 223.104 87.4079 223.074Z" fill="#1F1F39"/>
<path d="M206.171 231.936L194.154 192.879C194.094 192.639 194.214 192.398 194.454 192.308C194.695 192.248 194.935 192.368 195.025 192.609L207.043 231.666C207.103 231.906 206.982 232.146 206.742 232.237C206.682 232.267 206.622 232.267 206.592 232.267C206.412 232.267 206.231 232.146 206.171 231.936Z" fill="#1F1F39"/>
</svg>
