<svg width="308" height="308" viewBox="0 0 308 308" fill="none" xmlns="http://www.w3.org/2000/svg">
<path fill-rule="evenodd" clip-rule="evenodd" d="M247.787 0.0273438C280.972 0.0273438 307.875 26.9296 307.875 60.1151V247.589C307.875 280.775 280.972 307.677 247.787 307.677H60.3129C27.1273 307.677 0.225098 280.775 0.225098 247.589V60.1151C0.225098 26.9296 27.1273 0.0273438 60.3129 0.0273438H247.787Z" fill="#EAEAFF"/>
<path fill-rule="evenodd" clip-rule="evenodd" d="M172.797 257.083C172.797 256.753 173.068 256.482 173.398 256.482C174.6 256.482 175.802 256.482 177.004 256.452C177.334 256.452 177.604 256.723 177.604 257.053C177.604 257.384 177.334 257.654 177.004 257.654C175.832 257.654 174.63 257.684 173.398 257.684C173.068 257.684 172.797 257.414 172.797 257.083ZM166.188 257.624C165.857 257.624 165.587 257.354 165.587 257.023C165.587 256.693 165.857 256.422 166.188 256.422C167.389 256.452 168.591 256.452 169.793 256.452C170.123 256.452 170.394 256.723 170.394 257.053C170.394 257.414 170.123 257.654 169.793 257.654C168.591 257.654 167.389 257.624 166.188 257.624ZM180.038 256.993C180.038 256.663 180.308 256.392 180.639 256.392C181.841 256.362 183.042 256.332 184.244 256.302C184.575 256.302 184.845 256.543 184.875 256.873C184.875 257.204 184.635 257.474 184.304 257.504C183.042 257.564 181.841 257.594 180.639 257.594C180.308 257.594 180.038 257.324 180.038 256.993ZM158.947 257.474C158.617 257.474 158.346 257.173 158.376 256.843C158.376 256.513 158.677 256.242 159.007 256.272C160.209 256.302 161.411 256.332 162.613 256.362C162.943 256.362 163.213 256.633 163.213 256.963C163.183 257.294 162.913 257.564 162.582 257.564C161.381 257.534 160.149 257.504 158.947 257.474ZM187.218 256.843C187.218 256.513 187.459 256.242 187.789 256.212C188.991 256.182 190.193 256.122 191.395 256.062C191.725 256.062 191.995 256.302 192.025 256.633C192.056 256.963 191.785 257.234 191.455 257.264C190.253 257.294 189.051 257.354 187.819 257.414C187.849 257.414 187.849 257.414 187.819 257.414C187.489 257.414 187.218 257.173 187.218 256.843ZM151.737 257.204C151.406 257.204 151.136 256.903 151.166 256.573C151.166 256.242 151.466 255.972 151.797 256.002C152.998 256.062 154.2 256.092 155.402 256.152C155.732 256.152 156.003 256.452 155.973 256.783C155.973 257.083 155.702 257.354 155.372 257.354C154.14 257.324 152.938 257.264 151.737 257.204ZM194.429 256.482C194.399 256.152 194.669 255.882 195 255.852C196.202 255.791 197.403 255.701 198.605 255.611C198.936 255.581 199.236 255.852 199.236 256.182C199.266 256.513 198.996 256.813 198.665 256.813C197.463 256.903 196.262 256.963 195.06 257.053C195.06 257.053 195.06 257.053 195.03 257.053C194.699 257.053 194.459 256.813 194.429 256.482ZM148.131 257.023C146.93 256.963 145.728 256.903 144.526 256.843C144.196 256.813 143.955 256.543 143.955 256.212C143.985 255.882 144.256 255.641 144.586 255.641C145.788 255.701 146.99 255.761 148.191 255.822C148.522 255.852 148.792 256.122 148.762 256.452C148.762 256.783 148.492 257.023 148.161 257.023H148.131ZM140.951 256.633C139.749 256.543 138.547 256.482 137.346 256.392C137.015 256.362 136.775 256.092 136.775 255.761C136.805 255.431 137.075 255.191 137.406 255.191C138.607 255.281 139.809 255.341 140.981 255.431C141.311 255.461 141.552 255.731 141.552 256.062C141.552 256.392 141.281 256.633 140.981 256.633H140.951ZM201.64 256.032C201.609 255.701 201.85 255.401 202.18 255.371C203.382 255.281 204.584 255.161 205.756 255.07C206.086 255.04 206.387 255.281 206.417 255.611C206.447 255.942 206.206 256.242 205.876 256.272C204.704 256.392 203.472 256.483 202.27 256.573H202.24C201.94 256.573 201.67 256.332 201.64 256.032ZM133.74 256.122C132.539 256.032 131.337 255.942 130.165 255.822C129.835 255.791 129.594 255.491 129.624 255.161C129.654 254.83 129.955 254.59 130.285 254.62C131.487 254.71 132.659 254.8 133.861 254.92C134.191 254.95 134.431 255.221 134.401 255.551C134.371 255.882 134.101 256.122 133.8 256.122C133.77 256.122 133.77 256.122 133.74 256.122ZM208.82 255.341C208.79 255.01 209.03 254.71 209.361 254.68C210.563 254.56 211.764 254.409 212.936 254.289C213.267 254.259 213.567 254.5 213.597 254.8C213.627 255.131 213.387 255.431 213.086 255.461C211.915 255.611 210.683 255.731 209.481 255.882C209.451 255.882 209.451 255.882 209.421 255.882C209.12 255.882 208.85 255.641 208.82 255.341ZM126.56 255.521C125.358 255.401 124.156 255.311 122.955 255.191C122.624 255.161 122.384 254.86 122.414 254.53C122.444 254.199 122.744 253.959 123.075 253.989C124.276 254.109 125.448 254.229 126.65 254.319C126.98 254.349 127.221 254.65 127.191 254.98C127.191 255.281 126.92 255.521 126.62 255.521C126.59 255.521 126.59 255.521 126.56 255.521ZM215.971 254.53C215.94 254.199 216.151 253.899 216.481 253.869C217.683 253.718 218.885 253.538 220.056 253.358C220.387 253.298 220.687 253.538 220.747 253.869C220.808 254.199 220.567 254.5 220.237 254.56C219.065 254.74 217.863 254.92 216.661 255.07C216.631 255.04 216.601 255.04 216.571 255.04C216.271 255.04 216.031 254.83 215.971 254.53ZM119.379 254.83C118.178 254.71 116.976 254.59 115.804 254.439C115.474 254.409 115.233 254.109 115.263 253.779C115.293 253.448 115.594 253.208 115.924 253.238C117.126 253.358 118.298 253.508 119.5 253.628C119.83 253.658 120.07 253.959 120.04 254.289C120.01 254.59 119.74 254.83 119.439 254.83C119.409 254.83 119.409 254.83 119.379 254.83ZM112.199 254.049C110.997 253.899 109.795 253.779 108.624 253.628C108.293 253.598 108.053 253.298 108.113 252.967C108.143 252.637 108.443 252.397 108.774 252.457C109.946 252.607 111.147 252.757 112.349 252.877C112.68 252.907 112.92 253.208 112.89 253.538C112.83 253.809 112.559 254.049 112.259 254.049C112.229 254.049 112.199 254.049 112.199 254.049ZM223.121 253.448C223.061 253.118 223.301 252.817 223.602 252.757C224.803 252.547 226.005 252.336 227.147 252.126C227.477 252.066 227.778 252.276 227.838 252.607C227.898 252.937 227.688 253.238 227.357 253.298C226.185 253.508 225.014 253.718 223.782 253.929C223.782 253.959 223.752 253.959 223.722 253.959C223.421 253.959 223.181 253.748 223.121 253.448ZM105.018 253.178C103.817 253.027 102.615 252.877 101.443 252.697C101.113 252.667 100.872 252.336 100.932 252.036C100.962 251.705 101.293 251.465 101.593 251.525C102.765 251.675 103.967 251.856 105.169 252.006C105.499 252.036 105.739 252.336 105.679 252.667C105.679 252.937 105.409 253.178 105.109 253.178C105.079 253.178 105.048 253.178 105.018 253.178ZM230.211 252.126C230.151 251.796 230.362 251.495 230.692 251.405C231.864 251.165 233.065 250.894 234.207 250.624C234.538 250.564 234.838 250.744 234.928 251.075C234.988 251.405 234.808 251.706 234.478 251.796C233.336 252.066 232.134 252.336 230.932 252.577C230.872 252.607 230.842 252.607 230.812 252.607C230.542 252.607 230.271 252.427 230.211 252.126ZM97.8679 252.216C96.6662 252.036 95.4645 251.886 94.2927 251.706C93.9623 251.645 93.7519 251.345 93.7819 251.015C93.842 250.684 94.1425 250.474 94.473 250.504C95.6447 250.684 96.8465 250.864 98.0482 251.015C98.3787 251.075 98.6191 251.375 98.559 251.706C98.5289 251.976 98.2585 252.216 97.9581 252.216C97.928 252.216 97.898 252.216 97.8679 252.216ZM90.7476 251.135C89.5458 250.954 88.344 250.744 87.1723 250.564C86.8418 250.504 86.6315 250.203 86.6616 249.873C86.7216 249.542 87.0221 249.332 87.3526 249.362C88.5243 249.542 89.7261 249.753 90.8978 249.933C91.2283 249.993 91.4386 250.293 91.4085 250.624C91.3785 250.924 91.1081 251.135 90.8377 251.135C90.8077 251.135 90.7776 251.135 90.7476 251.135ZM237.242 250.534C237.151 250.203 237.362 249.873 237.662 249.813C238.834 249.512 240.006 249.212 241.117 248.881C241.448 248.791 241.778 248.972 241.868 249.302C241.958 249.632 241.778 249.963 241.448 250.053C240.306 250.384 239.134 250.684 237.963 250.984C237.933 250.984 237.872 250.984 237.812 250.984C237.542 250.984 237.302 250.804 237.242 250.534ZM83.6272 249.993C82.4254 249.783 81.2537 249.572 80.082 249.362C79.7515 249.302 79.5412 249.002 79.6012 248.671C79.6613 248.341 79.9618 248.13 80.2923 248.19C81.464 248.401 82.6357 248.611 83.8375 248.821C84.1679 248.881 84.3782 249.182 84.3181 249.512C84.258 249.783 83.9876 249.993 83.7172 249.993C83.6872 249.993 83.6572 249.993 83.6272 249.993ZM244.182 248.611C244.092 248.281 244.272 247.95 244.572 247.86C245.714 247.499 246.886 247.109 247.967 246.718C248.268 246.598 248.628 246.778 248.718 247.079C248.839 247.379 248.658 247.74 248.358 247.83C247.246 248.22 246.074 248.611 244.903 248.972C244.873 249.032 244.813 249.032 244.753 249.032C244.512 249.032 244.272 248.881 244.182 248.611ZM76.4767 248.701C75.275 248.461 74.1032 248.25 72.9315 248.01C72.601 247.95 72.3907 247.62 72.4508 247.319C72.5109 246.989 72.8414 246.778 73.1418 246.838C74.3135 247.079 75.4852 247.289 76.687 247.529C77.0175 247.589 77.2278 247.89 77.1677 248.22C77.1377 248.491 76.8973 248.701 76.5969 248.701C76.5668 248.701 76.5368 248.701 76.4767 248.701ZM69.4164 247.319C68.2146 247.079 67.0429 246.808 65.8712 246.568C65.5407 246.508 65.3304 246.177 65.4205 245.847C65.4806 245.516 65.8111 245.306 66.1416 245.396C67.2832 245.637 68.455 245.907 69.6568 246.147C69.9872 246.207 70.1975 246.538 70.1374 246.868C70.0773 247.109 69.8069 247.319 69.5365 247.319C69.5065 247.319 69.4464 247.319 69.4164 247.319ZM251.002 246.238C250.881 245.937 251.032 245.577 251.332 245.456C252.474 245.006 253.585 244.555 254.637 244.074C254.937 243.954 255.298 244.074 255.418 244.375C255.538 244.675 255.418 245.036 255.118 245.156C254.036 245.637 252.894 246.087 251.753 246.538C251.723 246.628 251.633 246.628 251.573 246.628C251.332 246.628 251.092 246.478 251.002 246.238ZM62.3561 245.727C61.1844 245.426 59.9826 245.126 58.841 244.795C58.5105 244.705 58.3302 244.375 58.4203 244.044C58.5104 243.714 58.8409 243.534 59.1714 243.624C60.283 243.954 61.4547 244.255 62.6264 244.555C62.9569 244.645 63.1372 244.946 63.0771 245.276C63.017 245.577 62.7767 245.757 62.5063 245.757C62.4462 245.757 62.4162 245.757 62.3561 245.727ZM257.611 243.413C257.461 243.113 257.581 242.752 257.882 242.602C258.963 242.061 260.045 241.521 261.036 240.95C261.337 240.8 261.697 240.89 261.848 241.19C261.998 241.491 261.908 241.851 261.607 242.001C260.586 242.572 259.504 243.143 258.392 243.684C258.332 243.744 258.242 243.744 258.152 243.744C257.942 243.744 257.731 243.624 257.611 243.413ZM55.3558 243.714C54.2142 243.323 53.0424 242.873 51.9609 242.452C51.6604 242.332 51.5102 241.971 51.6304 241.671C51.7506 241.37 52.1111 241.22 52.4115 241.34C53.4931 241.791 54.6048 242.212 55.7464 242.602C56.0469 242.722 56.2271 243.053 56.1069 243.353C56.0468 243.564 55.8365 243.744 55.5661 243.744C55.506 243.744 55.446 243.744 55.3558 243.714ZM48.626 240.95C47.5144 240.409 46.4328 239.868 45.3813 239.297C45.0808 239.147 44.9907 238.757 45.1409 238.486C45.2911 238.186 45.6817 238.096 45.9521 238.246C46.9736 238.817 48.0251 239.357 49.1067 239.868C49.4071 240.018 49.5273 240.379 49.3771 240.679C49.3471 240.89 49.1367 241.01 48.8964 241.01C48.8063 241.01 48.7162 240.98 48.626 240.95ZM263.951 239.958C263.77 239.688 263.86 239.297 264.131 239.117C265.152 238.456 266.144 237.795 267.075 237.104C267.346 236.894 267.706 236.954 267.916 237.224C268.127 237.495 268.067 237.855 267.796 238.066C266.835 238.757 265.843 239.448 264.792 240.109C264.672 240.199 264.551 240.229 264.461 240.229C264.251 240.229 264.071 240.139 263.951 239.958ZM42.2867 237.405C41.2652 236.744 40.2438 236.023 39.3124 235.302C39.042 235.091 39.0119 234.731 39.1922 234.46C39.4025 234.19 39.7631 234.16 40.0334 234.34C40.9648 235.061 41.9262 235.752 42.9477 236.383C43.2181 236.563 43.3082 236.924 43.128 237.224C43.0078 237.405 42.8276 237.495 42.6173 237.495C42.4971 237.495 42.3769 237.465 42.2867 237.405ZM269.779 235.752C269.569 235.512 269.599 235.121 269.839 234.911C270.74 234.13 271.612 233.319 272.423 232.477C272.663 232.237 273.024 232.237 273.264 232.477C273.505 232.718 273.505 233.078 273.264 233.319C272.423 234.16 271.552 235.001 270.59 235.812C270.53 235.902 270.38 235.963 270.23 235.963C270.049 235.963 269.899 235.902 269.779 235.752ZM36.5183 232.958C35.617 232.147 34.7458 231.276 33.9045 230.404C33.6642 230.164 33.6942 229.773 33.9345 229.563C34.1749 229.323 34.5655 229.353 34.7758 229.593C35.5569 230.434 36.4282 231.276 37.2994 232.087C37.5398 232.297 37.5698 232.688 37.3295 232.928C37.2394 233.048 37.0591 233.108 36.9089 233.108C36.7587 233.108 36.6085 233.048 36.5183 232.958ZM274.887 230.675C274.616 230.464 274.586 230.104 274.796 229.834C275.547 228.902 276.239 227.941 276.839 226.949C277.02 226.679 277.38 226.589 277.681 226.769C277.951 226.949 278.041 227.31 277.861 227.61C277.23 228.632 276.509 229.623 275.728 230.585C275.608 230.705 275.427 230.795 275.247 230.795C275.127 230.795 274.977 230.765 274.887 230.675ZM31.531 227.61C30.7799 226.649 30.0889 225.627 29.4279 224.606C29.2477 224.336 29.3378 223.945 29.6082 223.765C29.8786 223.584 30.2692 223.675 30.4495 223.945C31.0804 224.936 31.7713 225.928 32.4924 226.859C32.7027 227.13 32.6427 227.49 32.3723 227.7C32.2821 227.821 32.1319 227.851 32.0117 227.851C31.8315 227.851 31.6512 227.761 31.531 227.61ZM278.822 224.666C278.522 224.516 278.402 224.155 278.552 223.855C279.063 222.803 279.513 221.692 279.874 220.61C279.994 220.31 280.325 220.129 280.625 220.25C280.925 220.37 281.106 220.7 280.985 221.001C280.595 222.142 280.114 223.284 279.603 224.396C279.513 224.606 279.303 224.726 279.093 224.726C279.003 224.726 278.912 224.696 278.822 224.666ZM27.6253 221.421C27.0845 220.34 26.5738 219.228 26.1231 218.086C26.0029 217.786 26.1532 217.425 26.4536 217.305C26.7541 217.185 27.1145 217.335 27.2347 217.636C27.6553 218.747 28.1361 219.829 28.6768 220.88C28.8271 221.181 28.7069 221.541 28.4065 221.692C28.3464 221.752 28.2562 221.752 28.1661 221.752C27.9558 221.752 27.7455 221.632 27.6253 221.421ZM281.286 217.906C280.955 217.846 280.775 217.516 280.835 217.185C281.106 215.983 281.346 214.812 281.496 213.7C281.556 213.369 281.857 213.159 282.187 213.189C282.518 213.249 282.728 213.55 282.698 213.88C282.518 215.052 282.277 216.254 282.007 217.455C281.917 217.756 281.676 217.936 281.406 217.936C281.376 217.936 281.316 217.936 281.286 217.906ZM24.9814 214.601C24.6509 213.43 24.3806 212.258 24.1403 211.056C24.0802 210.726 24.2904 210.425 24.6209 210.365C24.9514 210.305 25.2519 210.515 25.3119 210.846C25.5222 212.018 25.8227 213.159 26.1231 214.301C26.2132 214.631 26.033 214.962 25.7025 215.052C25.6725 215.052 25.6124 215.052 25.5523 215.052C25.2819 215.052 25.0415 214.872 24.9814 214.601ZM282.458 210.816C282.127 210.786 281.887 210.515 281.887 210.185C281.947 209.464 281.947 208.743 281.947 208.022C281.947 207.541 281.947 207.09 281.917 206.64C281.917 206.309 282.157 206.039 282.488 206.009C282.818 206.009 283.089 206.249 283.119 206.58C283.149 207.06 283.149 207.541 283.149 208.022C283.149 208.743 283.119 209.494 283.089 210.245C283.059 210.575 282.788 210.816 282.488 210.816H282.458ZM23.5995 207.451C23.4793 206.249 23.4192 205.017 23.3892 203.816C23.3892 203.485 23.6596 203.215 23.99 203.215C24.3205 203.215 24.5909 203.485 24.5909 203.816C24.621 205.017 24.681 206.189 24.8012 207.361C24.8313 207.691 24.5909 207.992 24.2604 208.022C24.2304 207.992 24.2304 207.992 24.2003 207.992C23.8999 207.992 23.6295 207.751 23.5995 207.451ZM281.526 203.125C281.316 201.953 281.046 200.811 280.685 199.73C280.595 199.429 280.745 199.069 281.076 198.978C281.406 198.888 281.737 199.039 281.827 199.369C282.187 200.511 282.488 201.712 282.698 202.944C282.758 203.275 282.548 203.575 282.217 203.635C282.187 203.635 282.157 203.635 282.127 203.635C281.827 203.635 281.586 203.425 281.526 203.125ZM24.0501 200.781C23.7196 200.751 23.4792 200.481 23.4792 200.15C23.5694 198.948 23.6896 197.717 23.8698 196.515C23.9299 196.184 24.2304 195.974 24.5608 196.004C24.8913 196.064 25.1317 196.365 25.0716 196.695C24.8913 197.867 24.7711 199.069 24.7111 200.24C24.681 200.541 24.4106 200.781 24.0801 200.781H24.0501ZM279.333 196.515C278.792 195.493 278.161 194.502 277.47 193.571C277.26 193.3 277.32 192.94 277.59 192.729C277.861 192.519 278.221 192.579 278.432 192.85C279.183 193.841 279.844 194.893 280.385 195.974C280.535 196.275 280.415 196.635 280.114 196.785C280.084 196.815 279.964 196.845 279.874 196.845C279.664 196.845 279.453 196.725 279.333 196.515ZM24.9814 193.661C24.6509 193.601 24.4406 193.27 24.5308 192.94C24.8012 191.768 25.1016 190.566 25.4622 189.394C25.5523 189.064 25.8828 188.884 26.2133 189.004C26.5437 189.094 26.724 189.425 26.6038 189.755C26.2734 190.897 25.9729 192.068 25.7025 193.21C25.6424 193.48 25.4021 193.661 25.1016 193.661C25.0716 193.661 25.0115 193.661 24.9814 193.661ZM275.157 190.927C274.346 190.146 273.414 189.364 272.453 188.673C272.183 188.493 272.123 188.103 272.333 187.832C272.513 187.562 272.904 187.502 273.174 187.712C274.196 188.433 275.127 189.244 275.998 190.085C276.239 190.326 276.239 190.686 275.998 190.927C275.908 191.047 275.758 191.107 275.578 191.107C275.427 191.107 275.277 191.047 275.157 190.927ZM269.479 186.811C268.487 186.27 267.406 185.729 266.294 185.278C265.994 185.158 265.843 184.798 265.964 184.497C266.084 184.197 266.444 184.047 266.745 184.167C267.886 184.648 268.998 185.188 270.05 185.759C270.35 185.909 270.44 186.27 270.29 186.57C270.2 186.751 269.989 186.871 269.779 186.871C269.689 186.871 269.569 186.841 269.479 186.811ZM26.9644 186.721C26.6639 186.6 26.4837 186.27 26.6038 185.939C27.0245 184.798 27.5051 183.686 28.0159 182.574C28.1661 182.274 28.5266 182.154 28.8271 182.274C29.1275 182.424 29.2477 182.785 29.1275 183.085C28.6468 184.167 28.1661 185.248 27.7455 186.36C27.6554 186.6 27.415 186.751 27.1746 186.751C27.1146 186.751 27.0244 186.751 26.9644 186.721ZM262.959 184.047C261.848 183.686 260.706 183.386 259.534 183.115C259.204 183.025 259.023 182.725 259.084 182.394C259.144 182.064 259.474 181.883 259.805 181.944C261.006 182.214 262.208 182.544 263.32 182.905C263.65 182.995 263.8 183.356 263.71 183.656C263.62 183.896 263.38 184.077 263.139 184.077C263.079 184.077 263.019 184.077 262.959 184.047ZM256.019 182.424C254.847 182.244 253.646 182.094 252.474 181.974C252.143 181.944 251.903 181.643 251.933 181.313C251.963 180.982 252.264 180.742 252.594 180.772C253.796 180.892 255.028 181.042 256.229 181.223C256.56 181.283 256.77 181.583 256.74 181.914C256.65 182.214 256.41 182.424 256.109 182.424C256.079 182.424 256.049 182.424 256.019 182.424ZM29.8786 180.141C29.5782 179.991 29.488 179.63 29.6382 179.33C30.2391 178.248 30.8701 177.197 31.501 176.205C31.6813 175.935 32.0417 175.845 32.3422 176.025C32.6126 176.205 32.7027 176.566 32.5225 176.866C31.8916 177.858 31.2606 178.879 30.6898 179.931C30.5996 180.111 30.3893 180.201 30.179 180.201C30.0889 180.201 29.9687 180.171 29.8786 180.141ZM33.7543 174.042C33.4839 173.832 33.4538 173.471 33.6341 173.201C34.3852 172.239 35.1663 171.278 35.9474 170.377C36.1578 170.136 36.5483 170.106 36.7887 170.317C37.029 170.527 37.0591 170.917 36.8488 171.158C36.0676 172.029 35.3165 172.96 34.5955 173.892C34.4753 174.102 34.2951 174.162 34.1148 174.162C33.9946 174.162 33.8745 174.132 33.7543 174.042ZM38.4712 168.634C38.2308 168.394 38.2608 168.003 38.5012 167.793C39.4025 166.952 40.3339 166.14 41.2653 165.389C41.5357 165.179 41.8961 165.239 42.1064 165.48C42.3168 165.75 42.2567 166.11 42.0164 166.321C41.1151 167.042 40.1837 167.823 39.3424 168.634C39.2222 168.754 39.0721 168.814 38.9218 168.814C38.7716 168.814 38.5914 168.754 38.4712 168.634ZM179.798 166.651C179.467 166.651 179.197 166.351 179.227 166.02C179.227 165.69 179.497 165.419 179.858 165.449C181.059 165.51 182.261 165.48 183.403 165.419C183.733 165.389 184.004 165.66 184.034 165.99C184.064 166.321 183.793 166.591 183.463 166.621C182.742 166.681 181.991 166.681 181.27 166.681C180.789 166.681 180.308 166.681 179.798 166.651ZM176.162 166.381C175.051 166.261 173.849 166.08 172.557 165.87C172.227 165.81 172.016 165.51 172.076 165.179C172.136 164.849 172.437 164.638 172.767 164.698C174.029 164.909 175.201 165.089 176.283 165.209C176.613 165.239 176.853 165.54 176.823 165.87C176.793 166.171 176.523 166.381 176.222 166.381C176.192 166.381 176.162 166.381 176.162 166.381ZM186.377 165.72C186.317 165.389 186.558 165.089 186.888 165.029C188.03 164.849 189.201 164.608 190.373 164.308C190.704 164.218 191.034 164.428 191.094 164.728C191.184 165.059 190.974 165.389 190.674 165.449C189.472 165.75 188.27 166.02 187.098 166.201C187.068 166.231 187.038 166.231 186.978 166.231C186.678 166.231 186.437 166.02 186.377 165.72ZM169.012 165.179C167.99 164.969 166.909 164.728 165.467 164.428C165.136 164.368 164.926 164.037 165.016 163.707C165.076 163.376 165.407 163.166 165.737 163.256C167.179 163.557 168.261 163.797 169.252 164.007C169.583 164.067 169.793 164.398 169.733 164.728C169.643 164.999 169.402 165.179 169.132 165.179C169.102 165.179 169.042 165.179 169.012 165.179ZM193.408 164.037C193.287 163.737 193.468 163.376 193.768 163.286C194.85 162.926 195.961 162.505 197.073 162.024H197.103C197.403 161.904 197.764 162.055 197.884 162.355C198.004 162.655 197.854 163.016 197.554 163.136L197.343 162.565L197.554 163.136C196.382 163.617 195.24 164.037 194.159 164.428C194.099 164.428 194.038 164.428 193.978 164.428C193.738 164.428 193.498 164.278 193.408 164.037ZM44.0894 164.097C43.9091 163.827 43.9993 163.437 44.2697 163.256C45.3212 162.595 46.4028 161.994 47.4843 161.454C47.7848 161.303 48.1453 161.424 48.2955 161.724C48.4457 162.024 48.3256 162.385 48.0252 162.535C47.0037 163.046 45.9521 163.617 44.9306 164.278C44.8104 164.338 44.6902 164.368 44.6001 164.368C44.3898 164.368 44.2095 164.278 44.0894 164.097ZM161.952 163.677C160.81 163.437 159.638 163.166 158.436 162.926C158.106 162.866 157.896 162.535 157.986 162.205C158.046 161.874 158.376 161.664 158.707 161.754C159.939 162.024 161.11 162.265 162.222 162.505C162.552 162.565 162.763 162.896 162.673 163.226C162.613 163.467 162.372 163.677 162.072 163.677C162.042 163.677 161.982 163.677 161.952 163.677ZM154.921 162.175C153.72 161.934 152.548 161.694 151.406 161.484C151.076 161.424 150.865 161.123 150.925 160.793C150.986 160.462 151.286 160.252 151.616 160.312C152.788 160.522 153.96 160.763 155.162 161.003C155.492 161.063 155.702 161.394 155.642 161.724C155.582 161.994 155.312 162.175 155.041 162.175C155.011 162.175 154.951 162.175 154.921 162.175ZM200.077 161.333C199.927 161.033 200.047 160.672 200.348 160.522C201.429 160.012 202.481 159.441 203.502 158.87C203.803 158.72 204.163 158.81 204.313 159.11C204.464 159.411 204.374 159.771 204.073 159.921C203.022 160.522 201.94 161.093 200.858 161.604C200.798 161.664 200.708 161.664 200.618 161.664C200.408 161.664 200.167 161.544 200.077 161.333ZM50.4887 160.823C50.3686 160.522 50.5488 160.162 50.8492 160.072C52.021 159.681 53.2227 159.351 54.3944 159.11C54.7249 159.05 55.0253 159.26 55.1155 159.591C55.1756 159.921 54.9653 160.222 54.6348 160.312C53.4931 160.552 52.3515 160.853 51.2398 161.243C51.1797 161.213 51.1196 161.213 51.0595 161.213C50.8192 161.213 50.5789 161.063 50.4887 160.823ZM147.861 160.883C146.689 160.672 145.488 160.492 144.316 160.312C143.985 160.252 143.775 159.951 143.805 159.621C143.865 159.29 144.166 159.08 144.496 159.11C145.698 159.29 146.9 159.471 148.071 159.681C148.402 159.741 148.612 160.042 148.552 160.372C148.492 160.672 148.252 160.883 147.951 160.883C147.921 160.883 147.891 160.883 147.861 160.883ZM140.741 159.801C139.569 159.651 138.367 159.501 137.165 159.351C136.835 159.321 136.595 159.02 136.625 158.69C136.655 158.359 136.955 158.119 137.286 158.149C138.487 158.299 139.689 158.449 140.861 158.599C141.191 158.63 141.432 158.96 141.372 159.26C141.372 159.591 141.131 159.801 140.831 159.801C140.801 159.801 140.771 159.801 140.741 159.801ZM57.489 159.26C57.4589 158.93 57.6992 158.63 58.0297 158.599C59.2315 158.479 60.4332 158.389 61.635 158.299C61.9655 158.269 62.266 158.509 62.296 158.84C62.326 159.17 62.0857 159.471 61.7552 159.501C60.5835 159.591 59.3817 159.711 58.1799 159.801C58.1198 159.801 58.1199 159.801 58.0899 159.801C57.7894 159.801 57.519 159.561 57.489 159.26ZM64.6694 158.63C64.6394 158.299 64.8798 157.999 65.2102 157.969C66.412 157.878 67.6138 157.788 68.8155 157.698C69.146 157.668 69.4464 157.908 69.4464 158.239C69.4764 158.569 69.2361 158.87 68.9057 158.87C67.7339 158.96 66.5322 159.05 65.3004 159.14C65.3004 159.17 65.3004 159.17 65.2703 159.17C64.9699 159.17 64.6995 158.93 64.6694 158.63ZM133.62 158.96C132.448 158.84 131.247 158.72 130.045 158.63C129.715 158.599 129.474 158.299 129.504 157.969C129.534 157.638 129.835 157.398 130.165 157.428C131.367 157.548 132.569 157.638 133.77 157.758C134.101 157.788 134.341 158.089 134.311 158.419C134.251 158.72 133.981 158.96 133.68 158.96C133.65 158.96 133.65 158.96 133.62 158.96ZM71.88 158.089C71.8499 157.758 72.1203 157.458 72.4508 157.458C73.6525 157.368 74.8543 157.308 76.056 157.217C76.3865 157.187 76.687 157.458 76.687 157.788C76.717 158.119 76.4467 158.419 76.1162 158.419C74.9445 158.479 73.7427 158.569 72.5109 158.66H72.4809C72.1804 158.66 71.91 158.419 71.88 158.089ZM126.47 158.329C125.298 158.239 124.066 158.149 122.895 158.089C122.564 158.059 122.324 157.788 122.324 157.458C122.324 157.127 122.624 156.857 122.955 156.887C124.156 156.947 125.358 157.037 126.56 157.127C126.89 157.157 127.131 157.428 127.101 157.758C127.071 158.089 126.8 158.329 126.5 158.329H126.47ZM79.0604 157.638C79.0304 157.308 79.3008 157.037 79.6313 157.007C80.8631 156.947 82.0649 156.887 83.2366 156.827C83.5671 156.827 83.8374 157.067 83.8675 157.398C83.8975 157.728 83.6271 157.999 83.2967 158.029C82.1249 158.089 80.9232 158.149 79.6914 158.209C79.6914 158.209 79.6914 158.209 79.6613 158.209C79.3308 158.209 79.0905 157.969 79.0604 157.638ZM206.386 157.848C206.206 157.578 206.266 157.187 206.567 157.007C207.558 156.346 208.55 155.655 209.481 154.934C209.751 154.724 210.112 154.784 210.322 155.054C210.533 155.325 210.472 155.685 210.202 155.896C209.241 156.617 208.249 157.338 207.228 157.999C207.108 158.089 206.987 158.119 206.897 158.119C206.687 158.119 206.507 158.029 206.386 157.848ZM119.319 157.878C118.087 157.818 116.886 157.758 115.684 157.728C115.354 157.728 115.083 157.428 115.113 157.097C115.143 156.767 115.384 156.496 115.744 156.526C116.946 156.556 118.148 156.617 119.349 156.677C119.68 156.707 119.95 156.977 119.92 157.308C119.89 157.638 119.62 157.878 119.319 157.878C119.289 157.878 119.289 157.878 119.319 157.878ZM86.271 157.308C86.271 156.977 86.5114 156.707 86.8419 156.677C88.0736 156.617 89.2754 156.587 90.4471 156.556C90.7776 156.526 91.048 156.797 91.078 157.127C91.078 157.458 90.8377 157.728 90.5072 157.758C89.3054 157.788 88.1036 157.818 86.8718 157.878C86.9019 157.878 86.8718 157.878 86.8718 157.878C86.5414 157.878 86.271 157.638 86.271 157.308ZM93.4815 157.037C93.4815 156.707 93.7219 156.436 94.0824 156.436C95.3142 156.406 96.5159 156.376 97.6877 156.376C98.0181 156.376 98.2885 156.647 98.2885 156.977C98.2885 157.308 98.0181 157.578 97.6877 157.578C96.5159 157.608 95.3142 157.608 94.0824 157.638C93.7519 157.638 93.4815 157.368 93.4815 157.037ZM112.109 157.638C110.907 157.608 109.705 157.578 108.503 157.578C108.173 157.578 107.903 157.308 107.903 156.977C107.903 156.647 108.173 156.376 108.503 156.376C109.735 156.406 110.937 156.406 112.109 156.436C112.439 156.436 112.71 156.707 112.71 157.037C112.68 157.368 112.439 157.638 112.109 157.638C112.109 157.638 112.079 157.638 112.109 157.638ZM100.692 156.947C100.692 156.617 100.962 156.346 101.293 156.346C102.525 156.346 103.726 156.346 104.898 156.346C105.229 156.346 105.499 156.617 105.499 156.947C105.499 157.278 105.229 157.548 104.898 157.548C103.726 157.548 102.525 157.548 101.293 157.548C100.962 157.548 100.692 157.278 100.692 156.947ZM212.155 153.522C211.945 153.282 211.945 152.891 212.215 152.681C213.116 151.9 213.958 151.058 214.769 150.217C215.009 149.977 215.37 149.977 215.61 150.187C215.85 150.428 215.85 150.788 215.64 151.028C214.799 151.9 213.927 152.741 212.996 153.552C212.906 153.702 212.756 153.732 212.606 153.732C212.425 153.732 212.275 153.672 212.155 153.522ZM217.202 148.415C216.932 148.204 216.902 147.814 217.112 147.573C217.863 146.642 218.584 145.711 219.245 144.719C219.426 144.449 219.816 144.389 220.087 144.569C220.357 144.749 220.417 145.14 220.237 145.41C219.546 146.402 218.825 147.393 218.044 148.324C217.953 148.475 217.773 148.565 217.593 148.565C217.473 148.565 217.322 148.535 217.202 148.415ZM221.348 142.526C221.048 142.376 220.958 141.985 221.108 141.715C221.679 140.693 222.22 139.612 222.7 138.56C222.851 138.26 223.181 138.11 223.481 138.26C223.782 138.41 223.932 138.74 223.782 139.041C223.301 140.153 222.73 141.234 222.13 142.316C222.069 142.496 221.859 142.616 221.649 142.616C221.559 142.616 221.438 142.586 221.348 142.526ZM224.413 136.006C224.112 135.886 223.932 135.556 224.052 135.255C224.443 134.144 224.773 133.002 225.044 131.86C225.134 131.53 225.434 131.35 225.765 131.41C226.095 131.5 226.276 131.8 226.215 132.131C225.945 133.303 225.585 134.504 225.194 135.646C225.074 135.886 224.863 136.037 224.593 136.037C224.533 136.037 224.473 136.036 224.413 136.006ZM226.215 129.036C225.885 128.976 225.645 128.676 225.705 128.345C225.885 127.174 225.975 126.002 226.035 124.83C226.065 124.5 226.336 124.229 226.666 124.259C226.997 124.289 227.267 124.56 227.237 124.89C227.177 126.092 227.057 127.324 226.876 128.526C226.846 128.826 226.576 129.036 226.306 129.036C226.276 129.036 226.245 129.036 226.215 129.036ZM226.035 121.285C225.975 120.113 225.855 118.911 225.705 117.77C225.645 117.439 225.885 117.139 226.215 117.079C226.546 117.019 226.846 117.259 226.906 117.59C227.087 118.791 227.207 120.023 227.267 121.225C227.237 121.555 226.997 121.826 226.636 121.856C226.306 121.856 226.065 121.615 226.035 121.285ZM225.014 114.285C224.743 113.143 224.413 112.001 224.022 110.89C223.902 110.589 224.082 110.229 224.383 110.139C224.683 110.018 225.044 110.199 225.134 110.499C225.524 111.641 225.885 112.843 226.155 114.014C226.245 114.345 226.035 114.675 225.705 114.735C225.705 114.735 225.645 114.735 225.585 114.735C225.314 114.735 225.074 114.555 225.014 114.285ZM222.7 107.555C222.22 106.473 221.679 105.422 221.078 104.4C220.928 104.1 221.018 103.739 221.318 103.589C221.619 103.439 221.979 103.529 222.13 103.829C222.73 104.881 223.301 105.993 223.782 107.104C223.932 107.405 223.782 107.765 223.481 107.885C223.421 107.915 223.331 107.915 223.241 107.915C223.001 107.915 222.79 107.795 222.7 107.555ZM219.215 101.396C218.554 100.434 217.833 99.4731 217.082 98.5718C216.872 98.3014 216.902 97.9408 217.172 97.7305C217.443 97.5202 217.803 97.5503 218.013 97.8207C218.795 98.752 219.516 99.7435 220.207 100.735C220.387 101.005 220.327 101.396 220.056 101.576C219.936 101.606 219.816 101.666 219.696 101.666C219.516 101.666 219.305 101.576 219.215 101.396ZM214.709 95.8979C213.897 95.0566 213.026 94.2454 212.125 93.4643C211.885 93.254 211.855 92.8634 212.065 92.6231C212.275 92.3827 212.666 92.3527 212.906 92.563C213.837 93.3742 214.709 94.2154 215.55 95.0867C215.79 95.327 215.79 95.7176 215.55 95.9279C215.43 96.0481 215.279 96.0781 215.129 96.0781C214.979 96.0781 214.829 96.018 214.709 95.8979ZM209.361 91.211C208.429 90.52 207.438 89.829 206.447 89.168C206.176 88.9878 206.086 88.6272 206.266 88.3268C206.447 88.0564 206.807 87.9663 207.108 88.1465C208.129 88.8075 209.151 89.4985 210.112 90.2196C210.382 90.4299 210.442 90.7904 210.232 91.0608C210.082 91.2711 209.902 91.3312 209.721 91.3312C209.601 91.3312 209.481 91.3011 209.361 91.211ZM203.352 87.3954C202.331 86.8246 201.249 86.2838 200.167 85.7731C199.867 85.6228 199.747 85.2623 199.897 84.9619C200.047 84.6614 200.408 84.5413 200.708 84.6915C201.82 85.2022 202.901 85.7731 203.953 86.3439C204.253 86.4941 204.343 86.8847 204.193 87.1551C204.073 87.3353 203.863 87.4555 203.653 87.4555C203.562 87.4555 203.442 87.4255 203.352 87.3954ZM196.923 84.3009C195.841 83.8503 194.699 83.4296 193.588 83.0391C193.287 82.9189 193.107 82.5884 193.227 82.288C193.347 81.9875 193.678 81.8073 193.978 81.9274C195.12 82.318 196.292 82.7687 197.373 83.2193C197.674 83.3395 197.824 83.7 197.704 84.0005C197.614 84.2108 197.403 84.331 197.163 84.331C197.073 84.331 197.013 84.331 196.923 84.3009ZM190.163 81.9575C189.051 81.627 187.879 81.3266 186.708 81.0261C186.377 80.936 186.197 80.6356 186.257 80.3051C186.347 79.9746 186.648 79.7943 186.978 79.8544C188.18 80.1549 189.352 80.4553 190.493 80.7858C190.824 80.8759 191.004 81.2064 190.914 81.5369C190.854 81.8073 190.613 81.9875 190.343 81.9875C190.283 81.9875 190.223 81.9875 190.163 81.9575ZM183.223 80.245C182.081 80.0046 180.879 79.7943 179.707 79.584C179.377 79.5239 179.167 79.2235 179.227 78.893C179.287 78.5625 179.587 78.3522 179.918 78.4123C181.12 78.6226 182.321 78.8329 183.493 79.0733C183.824 79.1334 184.034 79.4638 183.974 79.7943C183.884 80.0647 183.613 80.245 183.343 80.245C183.313 80.245 183.253 80.245 183.223 80.245ZM176.132 79.0733C174.991 78.9231 173.789 78.7728 172.557 78.6527C172.227 78.6226 171.986 78.3222 172.016 77.9917C172.046 77.6612 172.347 77.4209 172.677 77.4509C173.909 77.5711 175.111 77.7213 176.283 77.8715C176.613 77.9016 176.853 78.232 176.793 78.5325C176.793 78.863 176.523 79.0733 176.222 79.0733C176.192 79.0733 176.162 79.0733 176.132 79.0733ZM114.392 77.7814C114.392 77.4509 114.662 77.1805 114.993 77.1805C116.195 77.1805 117.396 77.1805 118.598 77.1505C118.929 77.1505 119.199 77.4209 119.199 77.7513C119.199 78.0818 118.929 78.3522 118.598 78.3522C117.396 78.3823 116.195 78.3823 114.993 78.3823C114.662 78.3823 114.392 78.1119 114.392 77.7814ZM107.782 78.2921C107.452 78.2921 107.182 78.0217 107.182 77.6913C107.182 77.3608 107.452 77.0904 107.782 77.0904C108.954 77.1204 110.156 77.1204 111.388 77.1505C111.718 77.1505 111.989 77.4209 111.989 77.7513C111.989 78.1119 111.718 78.3522 111.388 78.3522C110.156 78.3522 108.924 78.3222 107.782 78.2921ZM169.012 78.3222C167.84 78.232 166.638 78.1419 165.437 78.0818C165.106 78.0518 164.866 77.7814 164.866 77.4509C164.896 77.1204 165.166 76.8801 165.497 76.8801C166.729 76.9402 167.93 77.0303 169.102 77.1204C169.433 77.1505 169.673 77.4209 169.643 77.7814C169.643 78.0818 169.372 78.3222 169.072 78.3222C169.042 78.3222 169.042 78.3222 169.012 78.3222ZM121.603 77.7213C121.603 77.3908 121.873 77.1204 122.203 77.1204C123.405 77.0904 124.607 77.0904 125.809 77.0603C126.139 77.0603 126.41 77.3307 126.41 77.6612C126.41 77.9917 126.139 78.2621 125.809 78.2621C124.607 78.2621 123.405 78.2921 122.203 78.3222C121.873 78.3222 121.603 78.0518 121.603 77.7213ZM100.542 78.0518C100.211 78.0217 99.941 77.7513 99.971 77.4209C100.001 77.0904 100.271 76.85 100.602 76.85C101.774 76.9101 102.975 76.9702 104.207 77.0002C104.538 77.0002 104.808 77.3007 104.778 77.6312C104.778 77.9316 104.508 78.202 104.177 78.202C102.945 78.172 101.714 78.1119 100.542 78.0518ZM128.813 77.5711C128.813 77.2406 129.054 76.9702 129.414 76.9702C130.616 76.9402 131.818 76.9101 133.019 76.8801C133.35 76.8801 133.62 77.1204 133.62 77.4509C133.62 77.7814 133.38 78.0518 133.049 78.0818C131.818 78.1119 130.616 78.1419 129.414 78.172C129.084 78.172 128.813 77.9016 128.813 77.5711ZM136.024 77.3908C136.024 77.0603 136.264 76.7899 136.594 76.7899C137.796 76.7599 138.998 76.7299 140.2 76.6998C140.53 76.6998 140.801 76.9702 140.801 77.3007C140.801 77.6312 140.56 77.9016 140.2 77.9016C139.028 77.9316 137.826 77.9616 136.625 77.9917C136.294 77.9917 136.024 77.7213 136.024 77.3908ZM158.256 77.7814C157.926 77.7814 157.655 77.511 157.655 77.1805C157.655 76.85 157.926 76.5796 158.256 76.5796C159.488 76.6097 160.72 76.6397 161.861 76.6998C162.192 76.6998 162.462 77.0002 162.432 77.3307C162.462 77.6612 162.192 77.9016 161.861 77.9016C160.69 77.8715 159.488 77.8114 158.256 77.7814ZM143.234 77.2105C143.234 76.8801 143.505 76.6097 143.835 76.6097C145.037 76.5796 146.239 76.5796 147.44 76.5496C147.771 76.5496 148.041 76.82 148.041 77.1505C148.041 77.4809 147.771 77.7513 147.44 77.7513C146.239 77.7814 145.037 77.8114 143.835 77.8114C143.505 77.8114 143.234 77.541 143.234 77.2105ZM96.9366 77.8114C95.7048 77.7213 94.503 77.6312 93.3313 77.511C93.0008 77.4809 92.7605 77.1805 92.7906 76.85C92.8206 76.5195 93.121 76.2792 93.4515 76.3092C94.6232 76.4294 95.8249 76.5195 97.0267 76.6097C97.3572 76.6397 97.5976 76.9101 97.5976 77.2406C97.5675 77.5711 97.2971 77.8114 96.9666 77.8114H96.9366ZM151.857 77.7513C151.586 77.7513 151.316 77.7513 151.046 77.7513C150.715 77.7513 150.445 77.4809 150.445 77.1505C150.445 76.82 150.715 76.5496 151.046 76.5496C151.346 76.5496 151.677 76.5496 151.977 76.5496C152.878 76.5496 153.78 76.5496 154.651 76.5496C154.981 76.5496 155.252 76.82 155.252 77.1505C155.252 77.4809 154.981 77.7513 154.651 77.7513C153.72 77.7513 152.788 77.7513 151.857 77.7513ZM89.726 77.1505C88.5243 77.0002 87.2925 76.85 86.1208 76.6998C85.7903 76.6397 85.5499 76.3393 85.61 76.0088C85.6701 75.6783 85.9706 75.438 86.301 75.498C87.4728 75.6483 88.6444 75.7985 89.8762 75.9487C90.2067 75.9788 90.4471 76.2792 90.417 76.6097C90.357 76.9402 90.0866 77.1505 89.7862 77.1505C89.7561 77.1505 89.726 77.1505 89.726 77.1505ZM82.5756 76.159C81.3739 75.9487 80.1721 75.7084 79.0004 75.468C78.6699 75.4079 78.4596 75.0774 78.5497 74.747C78.6098 74.4165 78.9403 74.2062 79.2708 74.2963C80.4125 74.5366 81.5842 74.777 82.7859 74.9873C83.1164 75.0474 83.3267 75.3478 83.2666 75.6783C83.2065 75.9487 82.9361 76.159 82.6657 76.159C82.6357 76.159 82.6057 76.159 82.5756 76.159ZM75.4852 74.5967C74.3135 74.2663 73.1418 73.9358 72.0001 73.5752C71.6997 73.4851 71.5195 73.1246 71.6096 72.8241C71.6997 72.5237 72.0603 72.3434 72.3607 72.4336C73.4723 72.7941 74.614 73.1246 75.7857 73.4551C76.1162 73.5452 76.2964 73.8757 76.2063 74.2062C76.1462 74.4465 75.8758 74.6268 75.6355 74.6268C75.5754 74.6268 75.5453 74.6268 75.4852 74.5967ZM68.5751 72.3434C67.4335 71.8928 66.3218 71.4121 65.2402 70.9013C64.9398 70.7511 64.8196 70.3906 64.9398 70.0901C65.09 69.7897 65.4506 69.6695 65.751 69.7897C66.8026 70.2704 67.9142 70.7511 69.0258 71.2018C69.3262 71.322 69.4765 71.6825 69.3563 71.9829C69.2361 72.2233 69.0258 72.3735 68.7854 72.3735C68.7254 72.3735 68.6352 72.3735 68.5751 72.3434ZM61.9655 69.279C60.8839 68.6781 59.8324 68.0472 58.841 67.4162C58.5706 67.236 58.4804 66.8755 58.6607 66.575C58.8409 66.3046 59.2015 66.2145 59.5019 66.3947C60.4934 67.0257 61.5148 67.6566 62.5664 68.2274C62.8668 68.3776 62.957 68.7382 62.8067 69.0386C62.6866 69.2189 62.4762 69.3391 62.2659 69.3391C62.1758 69.3391 62.0556 69.309 61.9655 69.279ZM55.8666 65.3132C54.9052 64.5621 53.9438 63.7809 53.0425 62.9697C52.8021 62.7594 52.772 62.3689 53.0124 62.1285C53.2227 61.8882 53.6133 61.8581 53.8536 62.0985C54.7249 62.8796 55.6563 63.6307 56.5877 64.3518C56.8581 64.5621 56.8881 64.9226 56.7078 65.193C56.5876 65.3432 56.4073 65.4333 56.2271 65.4333C56.1069 65.4333 55.9867 65.4033 55.8666 65.3132ZM50.4287 60.416C49.5874 59.5147 48.8063 58.6134 48.0552 57.652C47.8448 57.3816 47.9049 57.0211 48.1453 56.8107C48.4157 56.6004 48.7762 56.6605 48.9865 56.9009C49.7076 57.8322 50.4887 58.7336 51.2999 59.5748C51.5403 59.8151 51.5102 60.2057 51.2698 60.416C51.1797 60.5362 51.0295 60.5963 50.8793 60.5963C50.7291 60.5963 50.5488 60.5362 50.4287 60.416ZM45.9221 54.6776C45.2611 53.6561 44.6301 52.6046 44.0593 51.523C43.9091 51.2226 43.9992 50.8621 44.2997 50.7118C44.6001 50.5616 44.9606 50.6517 45.1108 50.9522C45.6817 52.0037 46.2826 53.0252 46.9435 54.0167C47.1238 54.2871 47.0637 54.6776 46.7633 54.8579C46.6431 54.918 46.5229 54.948 46.4328 54.948C46.2225 54.948 46.0423 54.8579 45.9221 54.6776ZM42.467 48.2482C41.9863 47.1366 41.5357 45.9649 41.1751 44.8232C41.085 44.5228 41.2352 44.1623 41.5657 44.0721C41.8962 43.982 42.2267 44.1322 42.3168 44.4627C42.6773 45.5743 43.0979 46.686 43.5786 47.7976C43.6988 48.098 43.5786 48.4585 43.2782 48.5787C43.158 48.6088 43.0679 48.6088 43.0078 48.6088C42.7674 48.6088 42.5572 48.4585 42.467 48.2482ZM40.1837 41.2781C39.6729 39.0548 39.6128 37.6728 39.5828 37.6127C39.5527 37.2822 39.8231 37.0118 40.1536 36.9818C40.4841 36.9517 40.7545 37.2221 40.7845 37.5526C40.7845 37.5526 40.8746 38.9046 41.3554 41.0377C41.4154 41.3682 41.2352 41.6686 40.9047 41.7588C40.8446 41.7588 40.8146 41.7588 40.7545 41.7588C40.4841 41.7588 40.2438 41.5785 40.1837 41.2781Z" fill="#F9C287"/>
<path fill-rule="evenodd" clip-rule="evenodd" d="M281.136 274.629V275.53H26.9644V274.629H281.136Z" fill="#1F1F39"/>
<path d="M145.337 76.3385C160.66 79.3429 165.767 103.078 172.377 110.288C178.986 117.499 194.91 120.503 202.421 134.624C209.932 148.744 206.627 166.771 219.846 178.488C233.065 190.205 251.693 200.991 260.105 222.652C272.122 253.598 260.706 273.126 246.585 275.229C240.336 276.16 184.845 274.959 144.947 273.997C119.98 273.396 74.734 275.83 48.2953 274.628C23.0885 273.487 25.5521 238.666 32.0716 228.661C44.9905 208.832 48.9864 203.424 50.098 186.9C51.2997 169.174 58.8107 157.757 70.8283 149.045C82.8458 140.332 89.0048 134.864 88.2537 120.803C87.052 97.9701 95.7647 83.2486 110.186 80.2442C119.499 78.3214 125.508 82.3473 125.508 82.3473C125.508 82.3473 131.667 73.6646 145.337 76.3385Z" fill="#1F1F39"/>
<path d="M161.261 110.589C166.068 111.79 166.729 118.43 164.565 122.306C161.561 127.714 154.05 128.314 154.05 128.314L153.149 115.396C153.149 115.396 156.454 109.387 161.261 110.589Z" fill="#F9ACC0"/>
<path fill-rule="evenodd" clip-rule="evenodd" d="M226.546 84.3609C223.572 82.1677 219.365 82.8287 217.172 85.803L205.635 101.546C203.442 104.52 204.103 108.727 207.077 110.92L215.189 116.868L208.249 126.332C207.708 127.083 207.859 128.135 208.61 128.676L209.03 128.976C209.391 129.367 209.932 129.637 210.532 129.547L229.37 127.234L242.289 136.697C245.263 138.891 249.469 138.23 251.663 135.255L263.199 119.512C265.393 116.538 264.732 112.332 261.727 110.139L226.546 84.3609ZM238.684 115.126L236.49 119.152C235.739 120.534 234.718 120.504 234.117 119.122L232.465 114.976L228.108 114.315C226.636 114.074 226.336 113.083 227.477 112.031L230.812 108.877L230.331 104.43C230.151 102.928 231.082 102.297 232.374 102.988L236.13 105.151L240.066 103.198C241.418 102.447 242.259 103.078 241.958 104.671L240.997 109.057L244.031 112.152C245.023 113.233 244.632 114.315 243.13 114.495L238.684 115.126Z" fill="white"/>
<path d="M78.6397 237.074L51.2998 220.249C51.2998 220.249 72.631 188.403 96.3657 175.183C120.1 161.964 144.436 160.762 163.364 164.067C182.291 167.372 201.519 177.887 213.236 192.609C224.954 207.33 239.675 232.868 239.675 232.868L202.12 238.276L209.03 274.629H70.8283L78.6397 237.074Z" fill="#3D5CFF"/>
<path d="M79.8414 236.773L52.5015 219.948C52.5015 219.948 73.8326 188.102 97.5673 174.883C121.302 161.663 145.638 160.462 164.565 163.766C183.493 167.071 202.721 177.587 214.438 192.308C226.155 207.03 240.877 232.567 240.877 232.567L202.421 237.975L218.043 275.229L72.03 274.328L79.8414 236.773Z" fill="#3D5CFF"/>
<path d="M155.522 127.263C155.282 127.233 155.101 126.993 155.162 126.753C155.192 126.602 155.762 123.057 157.265 119.722C158.797 116.357 160.6 114.825 160.69 114.765C160.87 114.615 161.17 114.645 161.321 114.825C161.471 115.005 161.441 115.306 161.26 115.456C161.23 115.456 159.518 116.958 158.076 120.113C156.604 123.328 156.033 126.873 156.033 126.903C156.003 127.113 155.793 127.263 155.582 127.263C155.552 127.263 155.522 127.263 155.522 127.263Z" fill="#1F1F39"/>
<path d="M98.4989 119.482C94.5331 122.456 96.4859 128.825 99.971 131.559C104.838 135.375 111.989 133.031 111.989 133.031L107.842 120.773C107.842 120.773 102.465 116.507 98.4989 119.482Z" fill="#F9ACC0"/>
<path d="M112.89 139.131C117.697 147.543 125.508 148.144 125.508 148.144C125.508 148.144 126.109 153.853 125.809 159.861C125.508 165.87 125.508 168.574 125.508 168.574C125.508 168.574 131.157 173.051 140.53 171.278C151.647 169.175 152.548 164.368 152.548 164.368C152.548 164.368 150.445 158.359 148.342 151.75C146.389 145.621 146.539 144.539 146.539 144.539C146.539 144.539 155.853 139.131 156.153 127.715C156.454 116.298 154.05 109.087 154.05 109.087C154.05 109.087 144.136 109.688 138.127 106.684C132.448 103.86 127.011 97.9711 127.011 97.9711C127.011 97.9711 121.482 97.7908 113.791 105.482C106.881 112.392 106.881 120.804 106.881 120.804C106.881 120.804 108.083 130.719 112.89 139.131Z" fill="#F9D2DD"/>
<path d="M188 195.042C186.978 194.411 185.987 193.75 184.995 193.119C172.227 185.128 162.883 184.887 151.046 184.587C145.938 184.467 140.14 184.316 133.44 183.505C119.95 181.913 114.903 174.432 113.04 168.453L114.182 168.093C115.954 173.741 120.731 180.771 133.59 182.304C140.26 183.085 146.028 183.235 151.106 183.355C163.123 183.656 172.617 183.896 185.656 192.068C186.648 192.699 187.669 193.33 188.691 193.991C198.365 200.18 208.339 206.579 223.061 203.635L223.301 204.806C220.627 205.377 218.134 205.618 215.76 205.618C204.524 205.618 196.141 200.27 188 195.042Z" fill="#EAEAFF"/>
<path d="M78.2191 238.756L75.9958 250.263L89.1551 256.001L93.842 274.448L128.633 274.688L109.585 234.67L78.2191 238.756Z" fill="#224BF4"/>
<path fill-rule="evenodd" clip-rule="evenodd" d="M148.953 130.166C145.789 130.84 142.887 129.808 142.472 127.86C142.058 125.913 144.287 123.788 147.451 123.114C150.616 122.44 153.518 123.472 153.933 125.42C154.347 127.367 152.118 129.492 148.953 130.166Z" fill="#F9ACC0"/>
<path fill-rule="evenodd" clip-rule="evenodd" d="M118.664 136.599C115.5 137.273 112.598 136.24 112.183 134.293C111.769 132.345 113.998 130.22 117.162 129.546C120.327 128.872 123.229 129.905 123.643 131.852C124.058 133.8 121.829 135.925 118.664 136.599Z" fill="#F9ACC0"/>
<path d="M109.314 121.285C111.988 121.405 112.589 123.809 113.491 126.512C114.392 129.216 115.293 134.925 118.598 138.53C121.903 142.135 123.705 146.041 122.504 150.548C121.302 155.054 114.993 159.561 114.993 159.561C114.993 159.561 89.1851 221.962 80.7427 239.778C72.3004 257.594 66.6221 269.521 51.2997 274.028C42.617 276.582 20.3545 272.526 20.3545 247.89C20.3545 227.971 54.905 192.609 54.905 192.609L94.8634 143.337C94.8634 143.337 92.1594 134.624 93.3612 129.817C94.5629 125.01 96.3656 124.409 97.5673 124.109C98.7691 123.809 99.3699 124.109 99.3699 124.109C99.3699 124.109 100.271 122.006 102.675 122.006C105.078 122.006 105.679 124.109 105.679 124.109C105.679 124.109 106.611 121.165 109.314 121.285Z" fill="#F9D2DD"/>
<path d="M114.632 159.831C114.482 159.621 114.542 159.35 114.722 159.2C114.782 159.17 120.911 154.723 122.053 150.427C123.105 146.491 121.903 142.796 118.237 138.83C115.564 135.916 114.452 131.77 113.641 128.735C113.43 127.924 113.22 127.233 113.04 126.662L112.86 126.122C111.958 123.388 111.357 121.825 109.254 121.735C109.014 121.735 108.804 121.525 108.834 121.255C108.834 121.014 109.044 120.804 109.314 120.834C112.139 120.954 112.92 123.328 113.731 125.851L113.911 126.392C114.121 126.993 114.302 127.684 114.512 128.525C115.293 131.469 116.405 135.495 118.928 138.259C122.744 142.435 124.066 146.491 122.924 150.698C121.692 155.294 115.503 159.771 115.233 159.951C115.173 159.981 115.083 160.011 114.993 160.011C114.842 160.011 114.722 159.951 114.632 159.831Z" fill="#1F1F39"/>
<path d="M138.487 110.409C139.118 110.078 139.839 109.868 140.56 109.868C141.281 109.838 142.032 109.958 142.693 110.288C143.354 110.619 143.925 111.13 144.135 111.821C143.595 111.37 143.024 111.13 142.423 110.949C141.822 110.799 141.221 110.739 140.59 110.769C139.959 110.799 139.358 110.889 138.758 111.069C138.157 111.22 137.556 111.49 136.925 111.791C137.285 111.19 137.856 110.739 138.487 110.409Z" fill="#1F1F39"/>
<path d="M115.774 115.787C116.285 115.306 116.916 114.946 117.607 114.766C117.787 114.705 117.967 114.705 118.117 114.675C118.298 114.645 118.448 114.645 118.628 114.615C118.959 114.585 119.289 114.585 119.62 114.615C120.281 114.675 120.972 114.735 121.572 115.096C120.911 115.126 120.281 115.246 119.65 115.336L118.718 115.487C118.388 115.547 118.117 115.577 117.817 115.667C117.246 115.817 116.705 116.057 116.195 116.358C115.684 116.658 115.203 117.049 114.692 117.5C114.873 116.839 115.293 116.268 115.774 115.787Z" fill="#1F1F39"/>
<path d="M130.315 122.998C130.195 123.809 130.105 124.62 130.045 125.401C130.015 125.792 130.045 126.182 130.105 126.483C130.135 126.573 130.135 126.633 130.165 126.693C130.165 126.723 130.195 126.753 130.195 126.753C130.225 126.753 130.195 126.783 130.255 126.813C130.375 126.903 130.526 127.023 130.676 127.084C131.006 127.204 131.367 127.294 131.757 127.264C132.148 127.264 132.569 127.204 132.989 127.114C132.659 127.384 132.268 127.564 131.848 127.684C131.427 127.805 130.946 127.865 130.466 127.744C130.225 127.684 129.985 127.594 129.774 127.444C129.714 127.414 129.654 127.354 129.594 127.294C129.534 127.234 129.504 127.174 129.444 127.114C129.354 126.993 129.324 126.873 129.264 126.753C129.114 126.272 129.114 125.822 129.114 125.371C129.174 124.5 129.354 123.659 129.594 122.847C129.895 122.036 130.195 121.255 130.616 120.504C130.556 121.345 130.435 122.186 130.315 122.998Z" fill="#1F1F39"/>
<path d="M132.118 131.62C133.92 131.62 135.723 129.817 135.723 129.817C135.723 129.817 136.624 132.521 134.221 134.024C131.817 135.526 128.813 133.723 128.813 130.719C128.813 130.719 130.315 131.62 132.118 131.62Z" fill="#F95368"/>
<path fill-rule="evenodd" clip-rule="evenodd" d="M120.678 125.843C119.44 125.973 118.315 124.915 118.164 123.479C118.013 122.044 118.894 120.774 120.132 120.644C121.369 120.514 122.495 121.573 122.646 123.008C122.797 124.444 121.916 125.713 120.678 125.843Z" fill="#1F1F39"/>
<path d="M125.538 148.504C125.659 149.826 126.049 154.603 126.139 159.17C128.182 158.388 130.916 157.127 133.019 155.354C136.925 152.049 139.328 147.242 139.328 147.242C139.328 147.242 137.225 148.444 130.315 148.744C127.792 148.865 126.35 148.684 125.538 148.504Z" fill="#F9ACC0"/>
<path fill-rule="evenodd" clip-rule="evenodd" d="M140.898 122.928C139.66 123.058 138.535 122 138.384 120.564C138.233 119.129 139.114 117.859 140.352 117.729C141.589 117.599 142.715 118.658 142.866 120.093C143.017 121.529 142.136 122.798 140.898 122.928Z" fill="#1F1F39"/>
<path d="M123.976 148.805C123.736 148.745 123.585 148.505 123.646 148.264C123.706 148.024 123.946 147.874 124.186 147.934C124.246 147.934 129.144 149.045 132.899 148.625C136.625 148.204 138.547 147.273 138.577 147.273C138.788 147.153 139.058 147.243 139.178 147.483C139.298 147.693 139.208 147.964 138.968 148.084C138.878 148.114 136.925 149.105 132.989 149.526C132.328 149.586 131.667 149.616 131.006 149.616C127.611 149.616 124.156 148.835 123.976 148.805Z" fill="#1F1F39"/>
<path d="M68.4248 242.782L77.7384 246.388C78.3393 245.126 80.1119 241.1 80.7428 239.778C81.5239 238.156 82.4253 236.143 83.4468 233.859L84.3481 180.291L68.4248 242.782Z" fill="#F9ACC0"/>
<path d="M215.64 272.226L193.407 219.949L200.648 275.11L215.64 272.226Z" fill="#224BF4"/>
<path d="M108.864 142.316C108.834 142.256 106.43 136.878 105.679 131.71C104.928 126.573 105.198 124.139 105.229 124.049C105.259 123.809 105.499 123.629 105.739 123.659C105.98 123.689 106.16 123.929 106.13 124.169C106.13 124.199 105.859 126.603 106.58 131.59C107.302 136.607 109.675 141.895 109.705 141.955C109.795 142.196 109.705 142.436 109.465 142.556C109.405 142.586 109.345 142.586 109.284 142.586C109.104 142.586 108.954 142.496 108.864 142.316Z" fill="#1F1F39"/>
<path d="M101.053 142.976C101.022 142.916 98.9795 137.388 98.5589 132.19C98.1383 126.993 98.5889 124.619 98.619 124.499C98.679 124.259 98.8894 124.109 99.1598 124.139C99.4001 124.199 99.5503 124.409 99.5203 124.679C99.5203 124.709 99.0696 127.083 99.4902 132.13C99.9108 137.178 101.894 142.616 101.924 142.676C102.014 142.916 101.894 143.156 101.653 143.246C101.593 143.277 101.533 143.277 101.473 143.277C101.293 143.277 101.113 143.156 101.053 142.976Z" fill="#1F1F39"/>
<path d="M200.798 238.456L192.987 220.129C192.897 219.889 192.987 219.649 193.227 219.528C193.467 219.438 193.708 219.528 193.828 219.769L201.639 238.096C201.729 238.336 201.639 238.576 201.399 238.696C201.339 238.726 201.279 238.726 201.219 238.726C201.038 238.726 200.888 238.636 200.798 238.456Z" fill="#1F1F39"/>
<path fill-rule="evenodd" clip-rule="evenodd" d="M106.25 25.5051C104.838 22.0801 100.902 20.4577 97.4773 21.8998L57.2184 38.6643C53.7934 40.0763 52.1711 44.0121 53.6132 47.4371L61.1241 65.4634C62.5362 68.8884 66.4719 70.5108 69.8969 69.0687L79.1806 65.193L83.6871 76.0389C84.0477 76.9102 85.0391 77.3007 85.8804 76.9402L86.361 76.7299C86.9018 76.6097 87.3825 76.3093 87.6228 75.7384L95.3742 58.4332L110.156 52.2742C113.551 50.8921 115.173 46.9564 113.761 43.5314L106.25 25.5051ZM82.8459 51.5531L82.4553 50.6518C82.0347 49.6904 81.9146 48.6389 82.1249 47.6174C82.3352 46.6259 82.8158 45.7246 83.5669 45.0035C84.7386 43.8619 85.1592 42.2996 84.6185 41.0077C83.8373 39.175 81.4338 38.454 79.2406 39.3853C77.0474 40.3167 75.9057 42.57 76.6568 44.4027L76.777 44.7031C76.8672 44.8834 76.777 45.0937 76.5967 45.1838L74.6139 46.025C74.4336 46.1152 74.2233 46.025 74.1332 45.8448L74.013 45.5443C73.322 43.922 73.3821 42.0893 74.1932 40.4068C74.9744 38.7845 76.3564 37.4926 78.0989 36.7715C79.8415 36.0204 81.7343 35.9303 83.4468 36.5011C85.2194 37.072 86.5713 38.3038 87.2623 39.9261C88.2838 42.3296 87.6229 45.1538 85.5799 47.1367C84.949 47.7676 84.7387 48.729 85.0992 49.5402L85.4898 50.4715C85.5799 50.6518 85.4897 50.8621 85.3095 50.9522L83.3266 51.7334C83.1464 51.8235 82.936 51.7334 82.8459 51.5531ZM84.4682 56.3301C84.0777 55.4288 84.4983 54.3472 85.4297 53.9566C86.331 53.5661 87.4126 53.9867 87.8031 54.918C88.1937 55.8494 87.7431 56.9009 86.8417 57.2915C85.9404 57.6821 84.8588 57.2615 84.4682 56.3301Z" fill="white"/>
<path d="M93.5412 174.883L131.727 191.287L177.484 175.964L182.591 184.016L129.053 200.18L88.1633 182.153L93.5412 174.883Z" fill="white"/>
<path d="M130.255 194.111L185.205 182.094V252.246L130.255 259.787V194.111Z" fill="#EAE9FF"/>
<path d="M131.727 193.991V259.907L83.0259 247.799L84.3779 180.261L131.727 193.991Z" fill="#F4F3FD"/>
<path d="M145.067 205.347C145.006 205.137 145.157 204.927 145.367 204.867L173.879 198.948C174.089 198.918 174.299 199.038 174.359 199.248C174.419 199.459 174.269 199.669 174.059 199.729L145.547 205.648C145.517 205.678 145.487 205.678 145.457 205.678C145.277 205.678 145.097 205.558 145.067 205.347Z" fill="#1F1F39"/>
<path d="M145.066 222.443C145.006 222.233 145.156 222.022 145.367 221.962L173.878 216.044C174.089 216.014 174.299 216.134 174.359 216.344C174.419 216.554 174.269 216.765 174.059 216.825L145.547 222.743C145.517 222.773 145.487 222.773 145.457 222.773C145.277 222.773 145.096 222.653 145.066 222.443Z" fill="#1F1F39"/>
<path d="M145.066 239.538C145.006 239.327 145.156 239.117 145.367 239.057L173.878 233.138C174.089 233.108 174.299 233.228 174.359 233.439C174.419 233.649 174.269 233.859 174.059 233.919L145.547 239.838C145.517 239.868 145.487 239.868 145.457 239.868C145.277 239.868 145.096 239.748 145.066 239.538Z" fill="#1F1F39"/>
<path d="M121.422 204.626L92.9102 198.708C92.6999 198.647 92.5497 198.437 92.6098 198.227C92.6699 198.017 92.8802 197.866 93.0905 197.926L121.602 203.845C121.812 203.905 121.963 204.115 121.903 204.326C121.873 204.476 121.692 204.626 121.512 204.626C121.482 204.626 121.452 204.626 121.422 204.626Z" fill="#1F1F39"/>
<path d="M121.422 221.692L92.9102 215.773C92.6999 215.713 92.5497 215.503 92.6098 215.292C92.6699 215.082 92.8802 214.932 93.0905 214.992L121.602 220.911C121.812 220.971 121.963 221.181 121.903 221.391C121.873 221.571 121.692 221.692 121.512 221.692C121.482 221.692 121.452 221.692 121.422 221.692Z" fill="#1F1F39"/>
<path d="M121.422 238.786L92.9102 232.868C92.6999 232.808 92.5497 232.597 92.6098 232.387C92.6699 232.177 92.8802 232.027 93.0905 232.087L121.602 238.005C121.812 238.065 121.963 238.276 121.903 238.486C121.873 238.666 121.692 238.786 121.512 238.786C121.482 238.786 121.452 238.786 121.422 238.786Z" fill="#1F1F39"/>
<path d="M111.688 248.49C111.688 244.584 115.594 245.185 119.8 246.387C124.006 247.589 144.136 249.692 164.565 247.889C184.995 246.087 203.322 243.082 203.322 243.082L201.219 238.275L238.173 232.867C238.173 232.867 246.585 252.696 244.482 265.915C242.379 279.135 229.761 280.637 194.91 283.04C174.75 284.423 148.432 281.809 129.865 279.345C116.315 277.542 103.366 274.268 100.181 272.345C97.6276 270.813 95.3142 269.07 95.1941 267.718C94.8936 264.714 96.9967 264.714 96.9967 264.714C96.9967 264.714 93.3914 263.212 93.6919 259.306C93.9322 256.001 96.0954 255.4 96.0954 255.4C96.0954 255.4 95.1941 252.095 96.6962 250.593C98.1984 249.091 100.542 250.203 102.405 251.194C106.881 253.597 106.28 253.597 116.796 255.4C116.796 255.4 111.688 252.396 111.688 248.49Z" fill="#F9D2DD"/>
<path d="M104.628 260.628C98.8895 258.525 95.8851 255.851 95.7649 255.731C95.5847 255.551 95.5546 255.281 95.7349 255.1C95.9151 254.92 96.1856 254.89 96.3658 255.07C96.3959 255.1 99.3702 257.744 104.928 259.787C110.486 261.83 117.036 261.86 117.096 261.86C117.336 261.86 117.547 262.071 117.547 262.311C117.547 262.551 117.336 262.762 117.096 262.762C116.826 262.762 110.336 262.732 104.628 260.628Z" fill="#1F1F39"/>
<path d="M103.726 268.139C98.0181 266.036 95.1339 263.513 95.0137 263.392C94.8335 263.212 94.8034 262.942 94.9836 262.762C95.1639 262.581 95.4343 262.551 95.6146 262.731C95.6446 262.762 98.4988 265.255 104.027 267.298C109.585 269.341 116.135 269.371 116.195 269.371C116.435 269.371 116.645 269.581 116.645 269.822C116.645 270.062 116.435 270.272 116.195 270.272C115.924 270.272 109.435 270.242 103.726 268.139Z" fill="#1F1F39"/>
<path d="M242.259 245.005C240.396 238.125 238.173 232.867 238.173 232.867L201.219 238.275" fill="#F9ACC0"/>
</svg>
